<?xml version="1.0" standalone="no"?>
<!DOCTYPE svg PUBLIC "-//W3C//DTD SVG 20010904//EN"
 "http://www.w3.org/TR/2001/REC-SVG-20010904/DTD/svg10.dtd">
<svg version="1.0" xmlns="http://www.w3.org/2000/svg"
 width="2500.000000pt" height="2500.000000pt" viewBox="0 0 2500.000000 2500.000000"
 preserveAspectRatio="xMidYMid meet">

<g transform="translate(0.000000,2500.000000) scale(0.100000,-0.100000)"
fill="#000000" stroke="none">
<path d="M756 24888 c-39 -153 -102 -334 -175 -506 -95 -223 -121 -352 -121
-595 0 -187 19 -345 91 -742 89 -493 94 -535 93 -805 0 -205 -3 -248 -22 -338
-43 -199 -125 -388 -439 -1012 -146 -291 -183 -372 -183 -404 0 -40 0 -40 16
-17 30 43 390 766 486 976 164 359 183 443 183 805 0 287 -3 313 -90 796 -82
460 -89 514 -89 734 -1 271 17 352 137 637 67 158 106 273 148 431 17 64 33
125 35 135 4 13 -1 17 -18 17 -21 0 -26 -10 -52 -112z"/>
<path d="M1403 24946 c7 -67 35 -123 83 -166 93 -81 171 -94 542 -87 245 4
302 8 387 27 199 43 363 120 468 220 60 57 61 59 34 60 -19 0 -44 -13 -75 -39
-111 -94 -254 -158 -442 -198 -102 -22 -146 -26 -385 -30 -300 -5 -378 4 -462
53 -55 32 -101 101 -109 166 -5 39 -10 48 -27 48 -18 0 -19 -5 -14 -54z"/>
<path d="M3475 24980 c-16 -50 -116 -184 -200 -267 -197 -193 -489 -347 -814
-427 -140 -35 -216 -46 -385 -56 -83 -5 -172 -15 -198 -23 -145 -45 -249 -164
-307 -352 -51 -165 -55 -222 -56 -790 -1 -499 -2 -538 -23 -674 -29 -185 -89
-419 -140 -546 -68 -171 -603 -1367 -976 -2185 -184 -402 -238 -508 -321 -633
-46 -68 -56 -91 -53 -118 3 -33 5 -31 74 72 39 59 92 144 117 190 50 92 342
728 727 1584 496 1103 528 1182 584 1465 50 250 57 364 54 864 -2 483 2 559
43 720 28 110 69 196 120 252 91 98 157 122 374 134 216 13 335 34 529 96 144
47 354 147 479 230 170 113 332 286 406 431 26 53 26 53 -3 53 -16 0 -27 -7
-31 -20z"/>
<path d="M3895 24923 c-23 -106 -53 -181 -140 -358 -47 -97 -101 -230 -150
-375 -43 -124 -90 -253 -106 -288 -73 -162 -230 -339 -469 -531 -281 -224
-426 -398 -612 -728 -169 -302 -284 -587 -541 -1343 -102 -300 -201 -579 -220
-620 -91 -199 -249 -425 -577 -825 -391 -478 -504 -639 -623 -886 -20 -43 -64
-115 -98 -160 -64 -88 -231 -259 -312 -319 -45 -34 -46 -37 -47 -88 l0 -53 58
44 c170 132 315 281 409 422 22 33 68 115 102 182 104 204 215 360 524 737
417 508 556 708 661 953 19 45 107 297 196 560 266 784 353 1004 523 1318 176
323 333 513 611 739 263 212 394 360 481 540 24 50 74 179 110 286 80 233 121
335 185 455 56 105 93 206 119 328 l19 87 -43 0 -43 0 -17 -77z"/>
<path d="M4282 24963 c-5 -21 -26 -110 -47 -198 -46 -197 -81 -295 -144 -405
-110 -192 -208 -422 -305 -714 l-56 -169 -223 -226 c-318 -325 -503 -540 -612
-715 -83 -134 -120 -270 -295 -1091 -187 -878 -319 -1368 -432 -1607 -93 -195
-307 -504 -505 -730 -210 -239 -1079 -1091 -1288 -1263 -102 -84 -348 -255
-366 -255 -5 0 -9 -13 -9 -30 l0 -30 68 42 c279 170 430 304 1136 998 505 497
687 713 915 1088 179 292 282 642 526 1787 185 867 208 949 315 1108 117 175
316 401 623 708 167 168 185 196 267 435 97 280 173 454 286 654 29 52 69 142
87 200 30 90 107 409 107 440 0 5 -9 10 -20 10 -14 0 -22 -10 -28 -37z"/>
<path d="M4726 24978 c-43 -233 -93 -366 -344 -913 -117 -256 -152 -352 -152
-419 0 -136 -115 -378 -345 -726 -109 -165 -299 -424 -425 -580 -106 -132
-135 -177 -190 -293 -128 -272 -207 -612 -355 -1517 -110 -678 -141 -813 -226
-979 -110 -216 -270 -372 -704 -688 -355 -258 -358 -262 -725 -748 -112 -148
-237 -313 -278 -365 -283 -358 -625 -676 -889 -829 -78 -45 -93 -58 -93 -78
l0 -25 67 37 c193 105 379 251 588 460 193 192 303 325 637 769 317 421 390
500 623 671 354 261 431 322 542 429 131 125 209 224 270 342 86 164 114 290
238 1039 94 569 156 886 215 1092 95 337 146 440 344 692 456 580 746 1074
746 1272 0 85 27 153 260 664 135 295 197 464 226 613 18 95 18 102 -6 102
-12 0 -21 -8 -24 -22z"/>
<path d="M5032 24858 c-82 -526 -272 -1015 -627 -1613 -443 -745 -559 -1011
-482 -1100 27 -32 78 -44 179 -45 143 0 228 29 386 133 159 105 297 223 947
817 388 355 475 429 635 535 135 90 249 142 361 165 439 89 1413 23 2209 -150
129 -28 169 -32 357 -37 243 -6 252 -6 793 77 380 59 597 87 840 112 85 9 317
13 720 13 650 0 634 -1 664 59 9 17 28 84 42 150 39 182 84 299 220 571 108
219 194 416 194 447 0 5 -10 8 -22 6 -18 -2 -29 -20 -57 -98 -19 -52 -90 -206
-158 -341 -130 -262 -188 -413 -221 -574 -26 -126 -35 -151 -64 -166 -18 -10
-159 -13 -633 -14 -732 -1 -762 -3 -1545 -124 -467 -72 -544 -81 -708 -81
-169 0 -301 16 -492 59 -277 62 -698 120 -1105 153 -215 17 -799 17 -932 0
-131 -17 -226 -43 -316 -88 -189 -95 -388 -249 -707 -544 -74 -69 -198 -181
-274 -250 -77 -69 -223 -201 -325 -294 -398 -361 -560 -465 -758 -485 -148
-15 -213 5 -213 65 0 111 183 472 554 1094 296 496 493 1006 571 1481 14 85
27 166 30 182 4 23 1 27 -18 27 -22 0 -24 -8 -45 -142z"/>
<path d="M5496 24968 c-2 -18 -11 -95 -20 -171 -9 -75 -35 -230 -58 -345 -50
-249 -57 -381 -22 -429 37 -50 78 -65 175 -61 100 5 169 33 334 138 196 125
268 145 505 144 200 -2 282 -12 1112 -133 856 -126 1077 -151 1344 -151 235 0
573 18 1872 101 90 5 285 14 435 19 184 6 293 14 336 25 196 48 328 188 456
487 52 120 145 376 145 397 0 6 -19 11 -43 11 l-43 0 -28 -87 c-45 -140 -140
-366 -187 -449 -48 -84 -141 -191 -193 -224 -88 -54 -132 -61 -471 -76 -176
-8 -646 -34 -1045 -59 -928 -57 -1183 -69 -1350 -61 -234 11 -493 44 -1490
190 -497 73 -707 96 -872 96 -221 0 -327 -31 -521 -153 -168 -105 -227 -130
-308 -131 -92 -1 -105 11 -102 102 1 37 18 144 37 237 40 198 72 403 81 528
l7 87 -40 0 c-39 0 -41 -2 -46 -32z"/>
<path d="M5842 24893 c-42 -87 -52 -118 -52 -160 0 -44 4 -54 29 -76 47 -39
126 -47 551 -57 539 -13 681 -28 1682 -181 323 -49 644 -94 712 -101 96 -9
225 -9 553 0 1220 34 1974 147 2219 332 64 48 131 135 181 233 55 110 57 117
29 117 -19 0 -28 -10 -46 -52 -57 -132 -167 -261 -266 -311 -226 -114 -769
-205 -1504 -252 -294 -19 -1012 -38 -1105 -30 -117 10 -280 33 -750 105 -1010
154 -1221 177 -1745 186 -335 5 -438 14 -479 41 -20 13 -23 21 -18 60 3 26 26
86 56 145 28 55 51 102 51 104 0 2 -10 4 -23 4 -20 0 -31 -17 -75 -107z"/>
<path d="M8951 24996 c10 -10 296 -87 393 -105 181 -35 306 -42 559 -31 340
14 555 46 738 110 l84 28 -62 1 c-37 1 -102 -9 -157 -23 -194 -51 -442 -76
-753 -76 -233 0 -338 13 -556 69 -74 19 -143 31 -184 31 -37 0 -64 -2 -62 -4z"/>
<path d="M12899 24953 c-45 -103 -138 -353 -162 -438 -61 -210 -75 -308 -87
-592 -14 -338 -40 -437 -142 -528 -114 -103 -253 -112 -783 -52 -418 48 -660
61 -881 48 -236 -15 -311 -26 -449 -71 -328 -106 -926 -236 -1175 -255 -148
-11 -648 26 -1085 80 -415 53 -861 130 -1265 220 -95 21 -295 19 -400 -4 -155
-35 -302 -110 -470 -240 -47 -36 -215 -194 -375 -351 -336 -330 -420 -401
-605 -506 -194 -110 -282 -174 -390 -283 -198 -200 -260 -379 -275 -791 -6
-158 -9 -180 -31 -227 -45 -94 -127 -150 -409 -277 -349 -158 -491 -267 -578
-442 -42 -84 -58 -167 -67 -354 -18 -364 -93 -549 -315 -779 -118 -122 -231
-212 -515 -411 -409 -284 -502 -364 -608 -522 -192 -285 -287 -567 -512 -1518
-61 -256 -137 -567 -170 -691 -89 -336 -345 -1189 -392 -1302 -31 -77 -66
-133 -162 -266 -152 -209 -305 -436 -469 -698 -110 -176 -127 -208 -127 -244
0 -41 6 -32 168 224 158 252 309 475 512 754 109 151 116 168 275 697 212 704
235 791 420 1567 205 862 310 1175 481 1431 114 172 220 265 604 528 452 311
622 475 742 715 72 143 95 250 108 490 5 99 16 207 25 240 54 205 203 356 481
486 329 154 412 198 472 253 94 88 103 118 113 371 12 339 56 490 197 666 95
120 209 209 424 333 80 45 181 109 224 142 44 32 214 192 379 354 165 162 337
324 382 360 291 232 567 312 858 251 50 -11 155 -33 235 -51 586 -126 1530
-242 1995 -244 188 -1 227 2 370 27 316 56 713 151 948 226 160 52 321 71 607
71 243 0 342 -7 725 -52 352 -41 556 -44 661 -10 135 44 215 135 254 287 16
62 23 133 30 320 14 375 54 564 190 895 91 222 87 210 61 210 -16 0 -27 -12
-42 -47z"/>
<path d="M13436 24988 c-2 -7 -16 -76 -31 -153 -55 -287 -131 -484 -229 -595
-127 -145 -140 -237 -67 -465 26 -80 45 -158 48 -203 12 -154 -53 -281 -241
-467 -258 -257 -539 -383 -929 -417 -241 -21 -440 2 -947 108 -421 88 -529 70
-905 -155 -204 -122 -292 -145 -530 -138 -126 4 -212 13 -405 46 -388 66 -444
71 -1015 81 -687 12 -956 32 -1250 92 -241 49 -253 50 -333 39 -83 -13 -147
-37 -244 -95 -105 -62 -208 -156 -426 -388 -270 -289 -423 -403 -779 -587 -95
-49 -156 -109 -175 -173 -13 -45 -18 -527 -8 -813 9 -250 5 -253 -563 -491
-312 -131 -442 -198 -545 -280 -183 -144 -259 -285 -346 -646 -66 -275 -132
-412 -264 -550 -88 -92 -162 -150 -299 -233 -359 -216 -617 -547 -893 -1144
-173 -374 -272 -643 -605 -1646 -334 -1005 -455 -1337 -593 -1628 -175 -368
-452 -778 -779 -1157 l-83 -95 0 -65 0 -65 40 45 c382 428 670 840 874 1250
150 303 292 686 601 1625 353 1070 484 1420 685 1830 218 445 459 756 712 921
59 38 140 90 180 116 170 109 301 250 382 408 55 108 75 166 131 391 74 294
118 387 246 516 116 117 198 163 574 320 469 196 541 238 601 345 l29 53 -5
200 c-9 364 -5 696 9 752 16 64 51 98 154 149 170 86 394 228 522 331 32 26
147 141 255 255 217 230 300 308 407 378 136 90 255 110 412 70 284 -72 690
-105 1486 -120 521 -9 512 -8 970 -86 196 -34 239 -38 390 -38 155 1 178 3
258 27 102 32 152 55 300 144 138 83 258 139 338 158 121 28 205 21 554 -50
376 -76 524 -95 735 -95 480 1 826 136 1136 444 200 198 264 319 264 494 0 98
-11 152 -61 310 -49 156 -39 215 56 324 93 106 163 261 220 488 25 99 65 300
65 326 0 18 -79 20 -84 2z"/>
<path d="M13973 24728 c4 -150 14 -403 22 -563 23 -444 30 -913 16 -1019 -21
-154 -78 -306 -166 -441 -52 -80 -242 -268 -335 -331 -225 -154 -499 -269
-845 -355 -244 -61 -335 -65 -1073 -50 -731 16 -700 19 -992 -89 -391 -144
-566 -177 -1005 -187 -442 -10 -614 23 -1100 214 -363 142 -541 183 -798 183
-239 0 -461 -44 -742 -145 -537 -195 -893 -423 -1088 -697 -109 -153 -163
-290 -222 -565 -92 -426 -135 -560 -222 -687 -56 -82 -123 -138 -218 -181 -88
-41 -158 -58 -368 -90 -221 -33 -285 -49 -387 -97 -68 -33 -100 -56 -161 -117
-72 -73 -82 -89 -177 -282 -206 -420 -323 -554 -917 -1050 -323 -271 -464
-403 -557 -525 -197 -257 -380 -629 -527 -1069 -27 -83 -104 -337 -170 -565
-309 -1072 -539 -1725 -791 -2248 -141 -292 -254 -465 -409 -627 -99 -103
-156 -174 -388 -485 -105 -140 -227 -298 -272 -350 -68 -80 -81 -101 -80 -130
l0 -35 35 40 c102 116 217 262 359 455 188 256 279 369 408 508 186 201 345
480 542 952 203 485 385 1025 616 1830 138 480 215 719 306 950 158 400 365
734 590 951 32 31 189 166 348 299 388 324 490 415 592 532 159 181 240 308
372 580 67 138 91 178 142 232 105 113 233 163 521 206 220 33 314 56 403 99
138 67 231 169 301 330 45 104 75 213 128 463 72 334 104 433 189 573 144 237
352 408 702 580 437 215 821 325 1134 325 237 0 424 -43 768 -176 324 -125
474 -172 663 -206 118 -21 708 -17 870 5 184 26 337 63 495 119 299 108 364
127 451 138 66 8 215 8 574 -1 650 -16 916 -10 1072 25 358 79 692 210 923
364 311 207 499 484 546 802 15 103 7 658 -15 1090 -8 157 -18 399 -22 538 -7
243 -8 252 -27 252 -20 0 -20 -4 -14 -272z"/>
<path d="M14590 24978 c0 -42 40 -279 66 -396 14 -63 45 -174 69 -246 111
-334 101 -514 -60 -1076 -72 -252 -80 -284 -110 -450 -52 -275 -331 -575 -779
-839 -645 -380 -1434 -542 -2776 -571 l-385 -8 -150 -35 c-694 -164 -870 -191
-1205 -191 -173 1 -237 5 -330 22 -157 29 -285 72 -410 140 -188 101 -254 132
-348 162 -155 50 -255 63 -437 57 -256 -9 -393 -45 -829 -219 -138 -55 -295
-115 -348 -133 -118 -39 -180 -78 -252 -155 -141 -153 -242 -381 -377 -855
-120 -422 -173 -556 -251 -641 -78 -85 -144 -113 -439 -189 -227 -58 -330 -97
-420 -157 -77 -51 -117 -104 -170 -226 -23 -53 -64 -133 -90 -177 -232 -392
-852 -1020 -1347 -1363 -141 -98 -195 -156 -308 -327 -107 -164 -164 -266
-289 -520 -448 -909 -805 -2034 -805 -2535 0 -154 -65 -424 -162 -673 -68
-175 -242 -518 -353 -694 -173 -276 -400 -558 -574 -710 -100 -88 -237 -180
-519 -348 -171 -102 -202 -124 -202 -144 0 -16 4 -21 14 -18 18 7 442 261 531
319 328 211 691 659 966 1193 223 432 321 743 341 1080 5 94 20 233 33 310
147 871 817 2498 1193 2897 36 37 113 102 172 143 376 259 826 684 1138 1074
129 160 212 287 272 416 73 156 78 165 124 213 88 92 184 134 478 207 216 55
320 93 387 144 127 95 171 192 315 686 46 160 100 333 119 385 133 370 267
549 454 610 38 12 203 75 368 140 492 194 615 225 885 224 154 -1 186 -4 270
-26 133 -36 240 -79 345 -139 192 -111 318 -158 520 -195 139 -26 535 -26 715
0 186 26 367 61 608 117 405 94 347 87 792 98 810 22 1350 81 1838 202 559
138 1094 421 1427 754 184 183 273 338 300 523 8 55 51 227 95 383 121 425
147 577 136 784 -6 132 -26 225 -81 385 -54 156 -100 367 -121 553 -6 47 -10
57 -25 57 -13 0 -19 -7 -19 -22z"/>
<path d="M15265 24988 c18 -50 77 -460 85 -588 5 -85 17 -225 26 -310 26 -225
26 -807 1 -1010 -50 -400 -142 -680 -294 -893 -70 -98 -266 -298 -383 -390
-492 -389 -1200 -667 -1915 -752 -71 -9 -283 -20 -470 -25 -477 -13 -831 -46
-1407 -131 -1312 -193 -1321 -194 -1703 -194 -239 0 -308 4 -390 19 -144 26
-341 76 -572 145 -476 141 -716 162 -1008 86 -296 -77 -454 -196 -570 -427
-66 -132 -88 -201 -165 -527 -88 -372 -134 -494 -234 -628 -47 -63 -138 -138
-209 -174 -21 -11 -112 -45 -203 -75 -392 -131 -614 -252 -775 -421 -82 -86
-167 -200 -309 -413 -137 -204 -280 -348 -657 -658 -331 -273 -489 -415 -620
-560 -477 -529 -660 -1026 -998 -2707 -138 -690 -176 -824 -360 -1290 -259
-656 -542 -1178 -807 -1489 -122 -143 -376 -366 -539 -473 -82 -53 -276 -149
-731 -361 -47 -22 -57 -31 -58 -52 0 -25 1 -25 133 38 72 35 227 108 343 162
284 132 369 185 569 351 331 278 539 556 804 1079 140 276 213 438 326 725
186 471 220 594 370 1335 168 830 264 1225 390 1605 165 495 333 778 655 1109
164 168 258 252 585 521 411 339 470 401 665 690 319 472 468 581 1066 779
368 122 497 294 619 821 85 369 114 464 186 605 108 213 261 323 546 395 259
65 496 50 845 -51 356 -103 433 -124 543 -149 193 -43 311 -55 555 -55 331 0
570 25 1300 136 950 144 1275 178 1853 194 444 12 688 44 1032 135 735 195
1394 589 1722 1031 182 246 286 587 323 1058 15 190 12 635 -5 821 -9 88 -20
232 -25 320 -10 150 -36 348 -76 563 -15 85 -18 92 -40 92 -14 0 -22 -5 -19
-12z"/>
<path d="M15805 24988 c45 -127 185 -676 220 -863 167 -881 0 -1601 -526
-2267 -100 -126 -350 -377 -479 -480 -330 -262 -708 -467 -1131 -613 -396
-136 -676 -188 -1104 -205 -366 -14 -627 -48 -1635 -210 -1091 -175 -1206
-191 -1465 -197 -198 -5 -202 -4 -435 36 -987 169 -1152 191 -1440 191 -446 0
-693 -125 -739 -375 -6 -33 -22 -170 -36 -305 -43 -414 -79 -588 -154 -745
-90 -189 -217 -288 -426 -332 -42 -9 -172 -18 -330 -23 -421 -14 -441 -21
-638 -238 -185 -202 -244 -258 -707 -662 -427 -373 -846 -779 -970 -938 -179
-229 -449 -706 -549 -970 -65 -170 -91 -358 -61 -437 58 -153 270 -149 626 13
60 27 224 111 364 186 584 313 1166 594 1996 962 559 247 705 316 875 409 631
347 1099 490 1544 472 270 -11 486 -68 740 -197 440 -222 925 -655 1224 -1095
240 -352 390 -719 437 -1070 13 -99 15 -181 11 -460 -6 -366 -17 -513 -48
-670 -52 -259 -162 -477 -370 -735 -120 -149 -195 -249 -276 -370 -282 -423
-338 -697 -158 -766 62 -23 206 -14 340 21 323 85 784 319 1051 535 267 215
506 521 669 857 118 241 177 413 295 851 82 306 106 374 191 526 243 437 601
855 967 1131 144 108 262 180 440 268 187 92 282 158 402 277 168 168 303 366
540 790 308 553 425 684 741 834 265 126 613 216 1023 266 238 29 403 39 776
50 606 16 923 72 2085 365 314 79 633 155 710 169 534 97 1295 154 2295 171
382 7 494 18 635 62 356 112 636 385 894 874 149 283 331 748 431 1102 104
367 121 642 54 874 -14 48 -54 149 -90 224 -88 187 -98 232 -91 394 4 72 22
261 41 420 92 764 106 885 125 1090 27 287 41 518 41 683 0 122 -1 132 -18
132 -18 0 -19 -15 -26 -208 -11 -364 -32 -595 -126 -1372 -74 -617 -80 -678
-80 -804 0 -131 16 -190 95 -356 94 -196 116 -282 122 -460 10 -277 -55 -560
-244 -1068 -379 -1021 -773 -1461 -1373 -1531 -47 -6 -254 -13 -460 -16 -940
-14 -1723 -74 -2247 -171 -76 -13 -376 -85 -668 -159 -1206 -305 -1512 -358
-2145 -375 -498 -14 -798 -43 -1127 -109 -355 -72 -661 -188 -877 -333 -136
-91 -279 -275 -442 -563 -354 -629 -447 -768 -643 -958 -119 -116 -207 -174
-406 -272 -532 -260 -1027 -755 -1384 -1385 -92 -162 -118 -231 -197 -523 -36
-133 -83 -301 -105 -374 -234 -774 -660 -1303 -1318 -1637 -337 -171 -647
-273 -798 -264 -116 8 -159 50 -157 153 3 168 191 507 490 880 163 204 222
291 294 440 135 278 164 470 165 1100 0 420 0 420 -27 545 -161 742 -720 1484
-1473 1953 -338 210 -606 295 -965 304 -427 12 -817 -94 -1330 -359 -446 -231
-572 -292 -925 -448 -1016 -448 -1548 -704 -2220 -1066 -321 -172 -498 -247
-647 -274 -304 -56 -316 220 -33 775 82 161 226 408 317 542 167 248 433 513
1118 1111 408 356 481 426 645 609 53 59 114 123 137 141 81 64 231 92 498 92
85 0 196 5 245 11 255 31 419 144 524 362 80 166 115 339 166 822 13 132 29
254 33 270 84 285 461 371 1197 274 83 -11 321 -49 530 -85 668 -115 693 -118
919 -104 241 15 382 36 1686 244 732 117 1029 153 1371 166 424 16 775 86
1171 234 853 318 1502 866 1862 1574 138 272 212 510 258 827 20 138 17 567
-5 735 -35 264 -94 527 -204 913 -52 184 -57 197 -79 197 -14 0 -22 -5 -19
-12z"/>
<path d="M16374 24983 c3 -10 19 -79 35 -153 17 -74 57 -243 89 -375 102 -407
129 -624 119 -935 -10 -288 -47 -494 -142 -779 -94 -281 -258 -578 -440 -796
-440 -528 -1032 -1013 -1560 -1277 -525 -263 -946 -356 -2433 -538 -561 -68
-748 -106 -971 -194 -211 -85 -421 -135 -733 -176 -354 -46 -859 -74 -1223
-68 -265 5 -320 14 -620 104 -342 104 -444 122 -573 104 -191 -26 -301 -136
-390 -390 -44 -126 -68 -240 -102 -485 -64 -464 -112 -536 -430 -640 -140 -46
-242 -92 -337 -151 -131 -81 -115 -79 -503 -80 -190 0 -351 -1 -358 -2 -7 -1
-93 -80 -190 -175 -198 -192 -232 -221 -554 -465 -322 -244 -437 -340 -568
-471 -125 -126 -207 -236 -248 -334 -34 -81 -36 -208 -5 -277 49 -109 117
-154 233 -154 144 1 278 53 689 271 331 176 506 260 711 343 191 78 412 178
860 392 568 272 809 374 1121 479 285 95 477 136 679 146 212 9 276 -8 778
-208 880 -351 1417 -732 1755 -1244 79 -120 187 -343 236 -486 62 -184 133
-505 172 -784 26 -183 36 -566 20 -730 -44 -433 -174 -785 -443 -1198 -101
-155 -136 -231 -144 -315 -10 -109 48 -167 161 -159 161 12 359 148 538 370
213 263 303 477 487 1162 50 187 112 408 137 490 190 630 433 1040 776 1313
115 91 276 200 755 510 237 154 466 309 509 344 224 182 335 334 506 690 47
98 111 217 142 265 279 429 677 643 1310 703 61 5 254 14 430 20 466 14 631
35 1280 165 504 101 574 112 797 124 232 13 364 38 1213 230 744 167 1114 238
1355 260 69 6 277 7 520 4 540 -7 840 12 1120 73 291 64 491 163 632 312 76
81 124 162 166 282 46 131 82 216 192 460 177 390 230 590 230 863 0 273 -54
514 -199 901 -169 447 -228 712 -272 1201 -25 274 -10 904 31 1323 14 142 13
152 -9 152 -22 0 -24 -10 -46 -300 -52 -661 -40 -1169 36 -1625 43 -254 94
-434 217 -765 160 -430 211 -670 199 -944 -10 -246 -62 -424 -239 -817 -123
-272 -134 -298 -180 -429 -45 -128 -93 -206 -177 -290 -189 -186 -488 -290
-986 -342 -79 -8 -316 -12 -695 -13 -540 -1 -584 -3 -725 -24 -211 -31 -667
-123 -1165 -236 -878 -198 -1005 -222 -1248 -235 -203 -11 -316 -28 -712 -110
-642 -132 -1000 -180 -1349 -180 -772 0 -1249 -155 -1586 -512 -122 -129 -208
-265 -334 -522 -127 -257 -202 -375 -320 -499 -127 -133 -211 -196 -611 -454
-488 -316 -716 -470 -827 -560 -322 -260 -550 -631 -738 -1197 -51 -155 -76
-241 -210 -741 -88 -327 -168 -559 -246 -714 -182 -361 -504 -661 -716 -665
-45 -1 -57 3 -80 27 -58 58 -28 168 99 360 252 380 382 701 443 1087 63 405
22 931 -115 1481 -143 570 -462 1018 -994 1399 -212 151 -566 344 -876 476
-195 83 -628 250 -696 269 -92 25 -324 31 -467 11 -404 -57 -812 -210 -1772
-668 -471 -225 -491 -234 -745 -338 -229 -94 -355 -155 -703 -339 -401 -212
-551 -273 -678 -273 -170 0 -262 183 -186 368 83 205 275 392 832 814 280 211
323 248 517 437 141 136 185 173 212 178 19 4 128 2 243 -4 334 -18 474 1 584
76 76 52 184 101 335 153 225 77 304 129 361 237 55 104 69 165 108 458 29
214 54 331 97 455 65 186 140 289 246 338 46 21 76 27 153 30 119 5 171 -5
505 -102 379 -109 390 -110 853 -103 494 8 795 30 1133 82 290 45 434 83 703
188 176 69 395 107 1095 192 785 95 1194 162 1577 259 510 129 1056 434 1579
881 161 136 468 443 598 595 240 281 401 563 510 892 89 271 125 483 133 790
9 347 -14 525 -131 995 -35 142 -74 306 -87 366 -21 100 -24 107 -46 107 -19
0 -23 -4 -19 -17z"/>
<path d="M21028 24898 c-108 -130 -237 -255 -308 -300 -83 -52 -135 -69 -241
-78 -116 -11 -181 -34 -296 -107 -301 -192 -378 -218 -648 -218 -164 0 -189 3
-286 28 -123 32 -251 80 -439 167 -192 88 -292 120 -413 130 -122 10 -171 25
-468 141 -245 95 -347 126 -450 135 -96 9 -161 -9 -214 -60 -61 -58 -72 -106
-80 -356 -28 -916 -221 -1858 -447 -2181 -80 -115 -725 -686 -1213 -1075 -348
-277 -828 -593 -1311 -862 -557 -310 -945 -459 -1494 -573 -52 -11 -275 -51
-495 -89 -474 -83 -549 -97 -980 -189 -723 -154 -995 -188 -1408 -179 -179 5
-217 9 -547 66 -441 76 -591 93 -795 93 -243 0 -374 -36 -454 -128 -45 -51
-61 -99 -61 -188 0 -92 22 -171 84 -300 65 -135 128 -220 215 -289 176 -142
285 -176 840 -267 524 -85 839 -178 1173 -345 211 -106 342 -198 502 -353 250
-244 353 -402 651 -1006 132 -266 252 -497 278 -531 63 -85 125 -127 198 -132
82 -6 142 25 259 133 247 227 385 317 966 628 421 225 564 315 748 468 190
158 278 283 416 583 193 419 370 693 595 922 164 166 309 262 485 320 l85 28
520 2 c884 3 1249 23 1652 90 201 33 332 71 494 142 301 133 622 246 1439 508
678 218 1368 446 1505 499 145 56 313 141 457 231 207 130 250 145 539 200
104 19 223 46 266 60 157 51 319 159 409 272 57 71 136 233 163 332 90 328 74
819 -44 1389 -81 388 -90 510 -89 1126 1 313 7 620 18 820 21 411 21 395 -4
395 -11 0 -20 -6 -20 -12 0 -7 -8 -157 -17 -333 -11 -213 -17 -503 -17 -870
-1 -629 6 -739 74 -1075 97 -484 129 -794 110 -1077 -26 -383 -124 -619 -323
-779 -136 -108 -271 -158 -601 -219 -76 -14 -173 -37 -215 -50 -74 -24 -111
-44 -361 -194 -68 -41 -180 -99 -249 -129 -131 -57 -689 -245 -1581 -532 -869
-280 -1103 -362 -1442 -506 -271 -116 -462 -161 -833 -198 -319 -32 -483 -39
-1165 -46 -791 -8 -747 -4 -917 -86 -241 -116 -496 -373 -716 -722 -67 -106
-223 -409 -306 -594 -59 -133 -127 -232 -234 -344 -195 -205 -367 -320 -902
-604 -533 -284 -694 -388 -915 -595 -198 -186 -286 -190 -414 -21 -21 28 -143
263 -271 521 -183 369 -253 500 -326 610 -278 416 -534 633 -987 834 -292 130
-552 200 -1040 281 -363 61 -502 91 -603 130 -202 79 -357 233 -445 441 -75
177 -84 302 -27 382 64 92 166 127 395 134 200 7 347 -9 846 -93 l383 -64 223
0 c457 0 595 20 1643 239 132 28 436 85 675 126 507 89 707 130 916 191 290
84 513 175 837 339 540 275 1186 688 1610 1029 463 372 1100 936 1182 1045
160 216 319 790 402 1456 36 292 61 628 61 841 0 186 35 260 137 290 96 28
240 -5 544 -126 266 -106 344 -130 461 -141 131 -11 222 -39 410 -125 211 -97
329 -142 447 -172 97 -24 123 -27 306 -27 292 0 361 22 668 218 115 73 180 96
296 107 53 5 116 15 140 24 69 25 179 104 266 191 75 75 255 286 255 299 0 3
-11 6 -24 6 -17 0 -44 -26 -108 -102z"/>
<path d="M21602 24230 c-154 -41 -285 -115 -635 -358 -259 -179 -344 -230
-492 -293 -424 -179 -686 -174 -1261 26 -443 155 -620 174 -776 82 -55 -32
-409 -370 -455 -434 -54 -75 -108 -188 -214 -451 -153 -378 -206 -469 -349
-597 -36 -32 -229 -222 -430 -421 -361 -358 -411 -401 -625 -544 -300 -201
-512 -366 -665 -519 -124 -125 -183 -204 -242 -327 l-43 -89 0 -120 0 -120 39
-72 c54 -102 166 -207 277 -262 102 -49 179 -65 414 -86 182 -16 276 -33 339
-59 19 -8 95 -50 169 -95 360 -214 591 -289 805 -262 88 12 103 16 347 104
436 157 532 212 715 412 242 265 381 338 680 356 308 20 500 81 900 287 63 32
144 70 180 83 91 34 157 102 254 264 95 157 160 240 233 294 89 66 146 82 323
92 207 11 268 17 378 40 222 45 368 116 487 234 126 126 167 222 205 485 30
211 40 369 47 720 12 677 -48 1246 -157 1477 -66 142 -102 165 -265 170 -86 2
-126 -1 -183 -17z m262 -32 c45 -8 66 -19 92 -46 35 -36 80 -139 108 -248 72
-278 114 -817 102 -1319 -12 -550 -55 -871 -138 -1028 -49 -93 -155 -193 -264
-249 -174 -89 -329 -124 -614 -138 -277 -14 -350 -39 -480 -171 -56 -56 -98
-113 -165 -225 -84 -140 -168 -244 -197 -244 -6 0 -127 -56 -268 -124 -408
-198 -541 -240 -808 -257 -191 -12 -285 -33 -397 -89 -116 -57 -194 -121 -344
-279 -194 -206 -272 -251 -686 -401 -294 -107 -317 -112 -460 -107 -104 4
-134 9 -226 40 -128 43 -267 111 -449 220 -199 119 -242 132 -550 157 -278 23
-398 68 -531 200 -134 133 -168 255 -116 422 40 126 106 219 276 389 161 160
330 292 663 517 232 158 334 247 635 558 122 126 279 281 349 344 205 186 253
264 414 665 51 127 115 275 142 330 49 98 55 105 261 308 263 260 284 272 452
272 129 -1 229 -25 515 -125 372 -131 547 -165 790 -157 183 6 280 28 478 107
169 68 276 130 536 310 331 229 441 295 577 340 120 41 203 49 303 28z"/>
<path d="M21385 23566 c-74 -34 -149 -104 -290 -268 -146 -171 -197 -218 -280
-257 -451 -215 -623 -293 -672 -307 -77 -22 -424 -31 -558 -15 -171 20 -232
47 -474 209 -119 80 -245 158 -281 174 -286 130 -503 29 -675 -312 -45 -89
-114 -267 -145 -370 -48 -165 -161 -332 -355 -525 -141 -140 -317 -287 -730
-610 -395 -309 -481 -381 -570 -477 -188 -203 -244 -351 -180 -477 40 -81 90
-114 390 -261 456 -225 636 -288 847 -297 253 -12 392 51 615 278 228 232 345
297 697 385 220 55 311 88 446 165 69 39 223 116 344 170 409 186 525 264 742
504 148 164 227 195 699 279 254 45 333 83 465 222 93 99 117 138 160 254 17
47 68 162 112 255 132 279 177 413 193 575 15 153 -35 341 -131 501 -124 205
-236 268 -369 205z m160 -85 c41 -23 124 -136 174 -237 99 -200 107 -382 25
-623 -14 -42 -62 -152 -106 -246 -44 -93 -98 -215 -119 -270 -61 -154 -76
-178 -168 -274 -126 -130 -182 -154 -511 -211 -238 -42 -318 -64 -437 -121
-87 -41 -113 -60 -170 -120 -296 -312 -351 -350 -806 -553 -92 -41 -223 -106
-290 -144 -148 -84 -191 -101 -415 -158 -391 -100 -489 -152 -737 -394 -191
-187 -278 -243 -419 -269 -87 -16 -155 -14 -267 9 -178 37 -371 114 -744 298
-236 116 -285 151 -310 216 -24 62 -7 126 56 220 102 154 202 241 834 736 315
247 436 350 585 500 228 228 300 340 390 605 179 529 356 698 629 600 88 -32
163 -76 366 -215 266 -183 350 -204 760 -198 211 4 270 8 315 22 47 15 260
113 656 302 106 50 166 101 296 253 173 201 239 263 307 287 39 14 60 11 106
-15z"/>
<path d="M18593 22688 c-70 -50 -133 -170 -247 -468 -112 -292 -191 -419 -379
-616 -128 -133 -244 -231 -462 -388 -424 -306 -466 -344 -481 -423 -12 -65 15
-97 161 -191 198 -127 296 -172 386 -179 184 -13 391 88 807 395 341 252 526
344 1253 622 671 257 841 349 921 503 65 124 -17 331 -145 367 -71 19 -139 7
-347 -64 -233 -80 -321 -100 -435 -100 -198 0 -339 79 -655 364 -175 158 -238
200 -299 200 -32 0 -56 -7 -78 -22z m149 -47 c26 -17 88 -67 139 -113 213
-192 365 -311 458 -357 110 -55 157 -66 286 -66 140 0 244 23 466 104 229 83
296 86 367 18 64 -62 91 -192 53 -265 -70 -136 -250 -234 -861 -467 -465 -177
-580 -225 -775 -320 -196 -97 -326 -176 -515 -315 -332 -244 -526 -355 -672
-386 -90 -19 -175 -8 -260 35 -80 41 -312 188 -336 214 -66 71 -14 130 347
390 361 260 480 360 618 518 156 180 225 299 328 569 90 236 155 370 208 425
53 55 83 58 149 16z"/>
<path d="M24982 20475 c-22 -48 -246 -435 -350 -605 -269 -437 -538 -804 -683
-929 -63 -54 -151 -101 -246 -131 -212 -68 -411 -80 -905 -55 -237 12 -429 16
-605 12 -249 -5 -264 -6 -428 -41 -251 -54 -379 -70 -705 -91 -515 -33 -797
-80 -1271 -214 -135 -39 -291 -81 -345 -95 -313 -79 -781 -157 -1199 -201
-330 -34 -551 -45 -1370 -69 -123 -4 -184 -11 -265 -29 -174 -42 -330 -104
-475 -192 -371 -224 -626 -548 -829 -1052 -127 -317 -235 -503 -371 -638 -104
-105 -172 -148 -450 -288 -356 -179 -537 -303 -764 -522 -318 -308 -518 -635
-946 -1555 -384 -825 -556 -1113 -819 -1375 -220 -218 -507 -384 -948 -549
-295 -110 -523 -177 -1217 -361 -200 -53 -431 -117 -514 -141 -664 -198 -950
-385 -1892 -1234 -720 -649 -845 -744 -1735 -1317 -572 -368 -787 -530 -1041
-783 -241 -241 -380 -424 -513 -680 -129 -250 -192 -439 -345 -1047 -128 -507
-183 -680 -281 -879 -111 -225 -224 -386 -527 -753 -271 -326 -337 -424 -403
-591 -35 -89 -59 -242 -75 -476 -26 -382 -48 -530 -106 -719 -40 -129 -352
-903 -428 -1060 -76 -159 -152 -282 -271 -440 -89 -119 -144 -182 -413 -480
-231 -257 -343 -453 -422 -741 -41 -148 -41 -154 -15 -154 14 0 22 11 30 43
106 404 193 555 535 927 315 344 474 565 605 842 67 143 381 922 418 1038 57
177 81 342 107 715 18 266 34 364 78 487 57 159 116 246 419 611 371 446 516
687 639 1057 26 80 96 336 154 570 59 234 136 513 171 620 187 567 508 997
1054 1410 175 132 346 249 675 460 863 555 1009 666 1695 1285 733 661 1027
885 1383 1055 233 111 447 179 1149 364 804 213 1111 315 1466 486 286 139
458 256 622 426 253 262 433 566 790 1334 431 930 643 1280 951 1575 217 207
411 340 734 502 127 64 268 140 315 171 223 144 378 368 545 782 69 171 145
329 208 429 263 421 629 692 1077 798 97 23 133 25 490 34 755 17 1275 62
1837 159 304 53 458 89 852 201 483 136 732 178 1291 214 272 18 427 36 595
71 66 14 154 32 195 40 126 25 475 29 866 9 704 -36 968 2 1194 172 198 148
563 673 939 1349 91 164 112 208 109 235 l-3 34 -13 -30z"/>
<path d="M13811 19699 c-88 -15 -228 -66 -361 -130 -133 -64 -272 -145 -631
-366 -177 -109 -248 -147 -325 -174 l-99 -34 -285 5 c-608 9 -1007 5 -1165
-13 -347 -40 -818 -127 -1042 -191 -288 -83 -379 -181 -267 -290 52 -50 156
-101 465 -227 604 -245 820 -362 994 -534 72 -72 79 -82 186 -250 128 -202
225 -331 334 -441 95 -96 122 -117 199 -155 86 -42 93 -44 196 -47 138 -5 211
13 442 108 519 214 804 415 997 704 26 39 71 116 100 171 69 131 162 268 258
382 287 337 323 386 392 527 47 97 123 321 145 428 41 198 2 319 -134 422
-102 76 -173 106 -265 111 -44 2 -104 0 -134 -6z m253 -114 c33 -16 88 -57
122 -90 52 -50 65 -70 79 -118 25 -88 0 -222 -83 -447 -78 -210 -136 -301
-337 -535 -206 -238 -292 -360 -386 -548 -176 -347 -493 -589 -1084 -825 -266
-106 -381 -116 -524 -46 -142 70 -305 257 -506 579 -109 174 -173 250 -289
339 -198 153 -378 244 -881 447 -402 163 -508 220 -491 264 17 46 289 131 641
199 601 116 996 144 1599 111 525 -28 563 -18 1001 252 481 297 646 382 839
434 108 29 223 23 300 -16z"/>
<path d="M13675 19284 c-127 -22 -279 -71 -375 -119 -116 -58 -222 -131 -540
-369 -349 -262 -444 -316 -554 -316 -82 0 -159 -59 -213 -163 -35 -68 -44
-208 -19 -285 56 -168 245 -236 506 -182 306 62 635 222 885 431 226 189 474
500 588 737 32 67 40 95 41 143 1 53 -2 62 -30 90 -50 50 -136 60 -289 33z
m201 -35 c118 -30 97 -148 -72 -400 -340 -509 -764 -820 -1299 -950 -118 -29
-258 -31 -334 -5 -172 59 -226 282 -110 453 41 59 84 82 172 92 132 15 206 59
604 358 277 209 371 272 488 331 90 45 243 94 355 112 41 6 82 13 90 15 33 6
63 4 106 -6z"/>
<path d="M24915 18842 c-302 -363 -730 -552 -1247 -552 -200 0 -320 12 -608
62 -395 68 -394 68 -1299 -186 -511 -144 -471 -137 -876 -146 -356 -9 -456
-18 -645 -60 -203 -45 -374 -118 -543 -232 -198 -133 -301 -160 -662 -173
-634 -23 -1005 -74 -1555 -214 -417 -106 -619 -175 -845 -286 -224 -110 -352
-222 -428 -370 -37 -74 -53 -137 -92 -367 -40 -238 -74 -354 -144 -492 -168
-329 -351 -472 -956 -746 -99 -45 -229 -109 -288 -143 -224 -127 -534 -386
-685 -572 -191 -237 -397 -616 -752 -1384 -213 -463 -302 -633 -447 -854 -114
-173 -220 -303 -351 -428 -220 -210 -358 -287 -736 -410 -158 -52 -314 -110
-421 -159 -391 -178 -849 -327 -1700 -556 -432 -116 -481 -132 -639 -212 -255
-129 -506 -319 -1036 -782 -415 -362 -385 -340 -837 -631 -638 -412 -876 -585
-1248 -905 -449 -386 -639 -615 -717 -864 -20 -64 -23 -95 -22 -210 1 -207 40
-323 210 -630 318 -575 391 -890 270 -1155 -60 -132 -240 -303 -496 -473 -263
-174 -350 -271 -415 -465 -36 -109 -52 -239 -60 -482 -10 -339 -44 -543 -125
-750 -74 -189 -171 -330 -377 -546 -146 -154 -183 -206 -258 -362 -166 -347
-282 -893 -315 -1487 -5 -102 -10 -226 -10 -277 0 -99 -18 -200 -50 -284 -11
-30 -20 -55 -20 -56 0 -2 11 -3 24 -3 20 0 27 10 51 82 26 78 28 102 41 388
21 463 61 769 144 1105 75 304 177 560 277 697 26 35 99 117 162 183 243 252
362 453 432 733 41 161 58 308 69 602 10 265 24 361 69 480 62 162 132 237
372 396 430 285 580 482 581 764 1 236 -85 495 -279 841 -210 372 -274 556
-259 745 21 287 188 519 681 953 378 332 646 527 1323 962 177 115 367 243
422 285 56 42 237 196 403 341 532 467 771 645 1043 781 136 67 171 78 557
182 594 159 986 276 1312 392 159 57 262 99 510 211 56 25 181 70 278 101 358
113 478 168 653 299 189 142 357 327 517 569 147 222 234 389 463 883 186 404
425 880 523 1045 200 335 420 565 766 803 104 72 231 138 440 232 251 113 399
189 505 260 195 131 333 286 439 495 78 153 106 245 147 490 39 232 54 291 94
369 132 257 482 436 1225 626 496 127 852 183 1295 205 706 35 711 36 964 199
223 145 408 210 726 258 67 10 229 18 450 23 395 9 363 4 819 131 966 271 932
265 1311 201 326 -56 433 -65 683 -59 176 4 233 9 333 31 329 70 572 202 806
437 122 123 144 154 136 197 -2 15 -21 -2 -83 -76z"/>
<path d="M24925 18398 c-301 -214 -715 -395 -1010 -443 -129 -21 -186 -19
-317 14 -231 58 -397 64 -624 21 -60 -12 -251 -56 -424 -100 -355 -89 -526
-126 -786 -169 -409 -69 -818 -114 -1224 -135 -311 -16 -261 -1 -635 -186
-392 -195 -493 -224 -810 -235 -658 -22 -1475 -206 -1938 -436 -361 -179 -736
-582 -904 -969 -26 -61 -37 -103 -43 -174 -5 -51 -17 -115 -26 -142 -71 -214
-298 -400 -707 -579 -252 -110 -388 -193 -612 -371 -140 -112 -498 -469 -645
-644 -331 -393 -618 -838 -740 -1145 -16 -41 -62 -170 -101 -287 -91 -271
-136 -385 -210 -528 -91 -176 -175 -286 -359 -472 -135 -136 -186 -180 -280
-241 -203 -133 -416 -236 -767 -370 -367 -141 -732 -255 -1582 -493 -836 -234
-1002 -294 -1226 -443 -161 -106 -254 -189 -605 -536 -190 -188 -372 -361
-405 -386 -33 -24 -143 -98 -243 -164 -695 -456 -772 -510 -991 -694 -108 -91
-622 -613 -777 -789 -187 -213 -264 -395 -264 -620 0 -81 5 -111 29 -179 145
-417 771 -1054 1299 -1321 234 -118 383 -147 1032 -197 775 -59 1168 -131
1437 -262 125 -60 174 -115 276 -306 99 -185 148 -254 281 -397 79 -85 117
-134 144 -189 l37 -75 0 -180 c0 -195 -9 -258 -65 -451 -71 -242 -249 -650
-319 -727 -202 -225 -710 -150 -1456 217 -304 149 -484 259 -955 581 -608 415
-1533 753 -2075 758 -156 1 -195 -9 -268 -74 -98 -85 -135 -204 -182 -585 -45
-363 -94 -561 -180 -722 -60 -114 -115 -182 -239 -297 -121 -111 -179 -182
-235 -288 -146 -271 -199 -554 -256 -1343 -23 -319 -47 -564 -62 -623 -5 -20
-2 -22 40 -22 l45 0 11 82 c20 148 30 258 56 623 48 666 101 954 221 1200 59
122 121 201 255 325 131 122 183 189 249 320 89 177 136 369 180 730 36 305
71 441 132 514 50 61 94 76 223 76 515 0 1442 -339 2035 -744 482 -330 651
-432 985 -596 595 -292 1057 -401 1348 -316 70 20 165 82 206 135 64 81 249
507 316 725 59 197 79 320 79 501 1 249 -24 309 -228 530 -122 132 -145 165
-237 337 -121 225 -159 270 -290 342 -273 149 -690 226 -1579 291 -477 35
-707 77 -879 160 -401 194 -899 636 -1166 1035 -124 185 -172 319 -162 452 11
143 49 248 135 378 65 98 101 138 451 504 464 484 502 513 1423 1118 107 69
232 157 278 194 47 38 222 206 390 375 378 379 533 505 753 612 181 88 320
132 1072 342 1238 345 1820 555 2240 808 151 91 238 159 375 297 288 288 408
501 594 1050 103 301 170 456 282 643 398 665 1006 1320 1499 1614 44 26 145
76 225 111 372 162 600 320 719 497 64 97 90 167 100 279 11 112 49 217 128
348 198 329 485 612 765 754 235 119 622 241 1022 324 326 67 573 98 886 110
367 15 447 38 897 263 126 64 261 124 299 135 53 16 112 22 254 26 414 13
1028 87 1505 181 94 19 323 72 510 119 414 103 536 126 680 127 134 1 176 -4
330 -43 113 -29 128 -30 260 -25 112 4 163 11 255 35 256 67 565 212 823 384
48 33 90 65 93 72 3 8 4 32 2 54 l-3 40 -70 -50z"/>
<path d="M24890 17526 c-191 -97 -375 -156 -620 -199 -172 -30 -542 -29 -933
1 -1028 80 -1864 -48 -2897 -446 -465 -179 -577 -199 -1016 -182 -392 15 -679
-5 -1103 -76 -414 -69 -651 -154 -905 -324 -120 -80 -266 -214 -358 -329 -133
-165 -225 -328 -377 -670 -117 -262 -147 -315 -226 -396 -72 -74 -152 -130
-440 -310 -503 -316 -747 -499 -1009 -761 -252 -252 -427 -488 -594 -800 -278
-521 -339 -633 -460 -844 -444 -775 -819 -1279 -1086 -1459 -275 -186 -776
-350 -1866 -611 -745 -179 -832 -201 -993 -255 -479 -159 -873 -376 -1277
-700 -124 -100 -313 -283 -675 -656 -125 -128 -276 -270 -440 -410 -299 -256
-601 -554 -749 -739 -133 -166 -294 -407 -346 -514 -142 -296 -68 -501 233
-648 170 -84 379 -138 897 -233 168 -31 375 -72 460 -91 290 -66 303 -67 510
-68 153 -1 214 3 280 17 220 47 426 138 757 336 252 150 664 363 843 434 268
108 434 142 640 134 264 -11 480 -103 637 -270 103 -111 143 -221 143 -397 0
-173 -27 -297 -155 -710 -90 -291 -111 -391 -119 -565 -8 -156 -28 -283 -67
-423 -82 -290 -268 -660 -538 -1072 -104 -158 -170 -294 -261 -540 -131 -351
-259 -614 -368 -752 -77 -99 -224 -208 -368 -274 -353 -161 -824 -194 -1195
-83 -134 40 -217 80 -409 196 -91 56 -385 231 -655 390 -443 262 -692 412
-1295 778 -382 233 -627 324 -798 296 -77 -12 -108 -29 -159 -84 -70 -76 -85
-140 -93 -407 -7 -223 -7 -226 -39 -308 -44 -112 -167 -292 -417 -612 -378
-483 -426 -579 -528 -1035 -30 -137 -166 -832 -166 -850 0 -4 10 -5 22 -3 21
3 25 16 56 178 133 708 196 968 276 1144 43 94 146 244 300 441 274 349 415
545 471 655 52 104 58 134 65 370 9 272 24 334 95 405 55 55 102 69 215 62
186 -11 360 -95 968 -465 227 -139 670 -405 986 -591 315 -187 633 -376 707
-422 208 -128 363 -188 584 -225 125 -21 421 -24 554 -5 386 55 727 230 885
455 53 76 160 271 213 391 22 50 78 189 123 310 105 280 156 385 272 565 348
537 532 940 588 1292 5 37 15 138 20 225 11 184 25 249 134 602 143 462 171
664 120 866 -45 175 -185 321 -407 425 -131 62 -220 82 -389 87 -225 8 -380
-21 -630 -118 -180 -71 -608 -289 -869 -445 -433 -258 -672 -347 -964 -361
-154 -7 -257 6 -530 67 -121 27 -312 65 -425 85 -740 131 -994 215 -1144 375
-150 160 -122 334 108 678 247 369 450 584 996 1058 168 145 324 292 458 431
112 115 210 219 218 231 27 39 305 293 428 390 420 335 869 566 1391 716 88
25 297 77 465 117 720 168 1419 353 1680 444 273 96 475 192 599 285 352 266
836 989 1466 2189 126 241 200 363 313 514 179 239 394 459 646 661 189 152
316 240 666 461 326 206 403 260 472 332 71 74 118 155 208 360 168 381 282
580 432 752 248 286 592 474 1028 561 458 92 691 112 1235 108 560 -3 594 3
1049 179 1024 395 1862 528 2846 453 354 -28 702 -36 855 -21 260 25 513 95
733 201 109 52 122 62 122 84 0 14 -1 26 -2 25 -2 0 -50 -24 -108 -53z"/>
<path d="M7825 16924 c-199 -33 -332 -83 -919 -346 -868 -388 -1094 -500
-1661 -823 -307 -175 -560 -302 -855 -430 -355 -154 -497 -229 -760 -405 -63
-42 -191 -121 -285 -174 -274 -158 -378 -242 -473 -380 -130 -188 -183 -343
-297 -871 -169 -781 -290 -1125 -509 -1453 -164 -246 -322 -419 -721 -786
-398 -366 -507 -488 -597 -664 -52 -102 -53 -104 -56 -207 -5 -135 15 -207
141 -500 147 -342 184 -481 174 -660 -7 -124 -20 -171 -112 -410 -113 -295
-179 -522 -205 -700 -15 -105 -12 -300 5 -373 47 -197 179 -323 388 -369 96
-21 352 -21 517 1 523 69 1114 260 1797 580 202 94 489 244 658 344 722 427
2086 1538 2550 2077 33 39 100 126 150 195 279 392 490 645 750 905 394 394
781 682 1378 1022 422 240 663 420 860 641 191 215 319 457 367 691 66 324 40
1022 -51 1385 -65 263 -206 584 -333 761 -85 118 -216 258 -319 340 -261 209
-708 473 -940 554 -197 69 -438 90 -642 55z m408 -39 c269 -47 565 -194 997
-496 226 -158 355 -287 492 -491 175 -260 301 -623 355 -1025 26 -190 26 -869
0 -995 -62 -306 -213 -566 -474 -819 -180 -175 -387 -322 -707 -504 -956 -542
-1516 -1039 -2118 -1878 -72 -100 -152 -207 -177 -237 -472 -563 -1895 -1718
-2641 -2145 -648 -371 -1446 -693 -2032 -820 -238 -51 -358 -66 -558 -72 -155
-4 -210 -2 -269 11 -274 58 -392 233 -377 561 10 237 64 434 254 935 60 156
76 249 69 400 -8 185 -33 266 -182 616 -52 121 -105 258 -116 304 -38 149 -16
269 76 412 94 145 195 253 515 546 420 385 587 565 759 822 225 336 356 710
521 1485 121 574 204 779 384 960 82 81 159 135 361 251 94 53 248 149 344
212 199 132 412 244 691 363 254 108 598 280 830 414 562 324 929 504 1945
955 327 145 490 202 670 234 107 19 282 19 388 1z"/>
<path d="M7613 16219 c-273 -32 -599 -138 -890 -289 -158 -82 -263 -149 -426
-273 -220 -167 -343 -215 -770 -303 -403 -82 -494 -117 -676 -261 -152 -120
-232 -154 -631 -268 -317 -91 -474 -160 -675 -296 -114 -78 -529 -413 -607
-492 -86 -86 -119 -171 -173 -447 -9 -47 -43 -191 -75 -320 -58 -237 -96 -414
-169 -810 -82 -443 -149 -632 -285 -809 -60 -78 -151 -161 -371 -340 -553
-450 -736 -667 -775 -918 -31 -197 58 -368 283 -544 279 -219 434 -461 477
-741 6 -43 12 -214 13 -390 l2 -313 28 -57 c66 -135 212 -191 492 -192 303 0
619 72 935 213 187 83 306 161 517 341 115 98 273 213 667 483 764 524 1103
782 1403 1070 306 294 406 443 931 1384 258 462 335 552 590 688 523 279 1051
662 1417 1029 284 285 465 547 552 798 26 78 28 92 27 248 0 150 -3 173 -28
255 -60 198 -162 390 -315 593 -276 366 -684 719 -1026 888 -168 83 -247 96
-442 73z m302 -59 c139 -48 320 -157 525 -316 138 -107 448 -412 553 -544 318
-402 451 -775 378 -1062 -116 -454 -641 -1020 -1431 -1543 -216 -143 -351
-224 -510 -308 -151 -79 -223 -131 -303 -217 -98 -106 -166 -211 -377 -590
-454 -810 -555 -963 -810 -1220 -321 -323 -639 -567 -1540 -1185 -337 -231
-502 -352 -643 -472 -177 -152 -322 -241 -532 -327 -519 -211 -1079 -242
-1248 -68 -70 72 -72 80 -73 437 -1 247 -5 339 -17 405 -54 285 -189 490 -480
728 -71 58 -147 128 -169 156 -146 183 -144 390 6 614 108 160 262 310 636
617 336 276 419 366 510 557 61 128 108 291 155 534 101 527 131 673 172 834
24 96 66 276 93 400 66 306 74 326 174 425 88 87 422 360 563 461 194 140 368
215 730 319 344 99 440 138 561 231 184 141 215 159 354 205 51 16 213 54 362
85 427 87 539 132 783 315 167 126 264 187 433 274 263 134 570 234 805 264
50 6 104 13 120 15 58 8 161 -3 220 -24z"/>
<path d="M7425 15866 c-538 -182 -762 -297 -1240 -636 -391 -277 -433 -294
-740 -310 -322 -16 -404 -64 -569 -331 -103 -164 -107 -166 -352 -124 -164 28
-286 31 -389 10 -90 -19 -238 -92 -390 -193 -477 -318 -804 -742 -930 -1207
-40 -146 -55 -258 -65 -465 -14 -313 -59 -488 -200 -775 -87 -176 -132 -253
-320 -550 -247 -388 -310 -528 -310 -690 0 -98 23 -159 82 -218 86 -86 184
-121 558 -202 160 -35 262 -67 328 -105 50 -29 78 -61 132 -150 33 -55 101
-96 201 -121 75 -19 102 -21 279 -16 146 3 231 11 341 30 618 109 1362 383
1718 635 438 310 933 895 1160 1372 70 148 100 248 111 366 11 122 16 145 46
206 61 121 184 207 469 328 55 23 143 64 195 91 52 27 151 75 220 108 175 82
286 159 405 282 96 100 448 542 541 680 91 136 124 285 124 555 0 183 -14 278
-62 412 -147 417 -492 825 -832 982 -111 52 -193 70 -312 70 -86 0 -112 -5
-199 -34z m337 -65 c161 -41 305 -128 462 -280 247 -239 417 -517 498 -813 21
-74 23 -104 22 -283 -1 -220 -14 -302 -62 -409 -31 -69 -75 -131 -321 -446
-267 -343 -392 -458 -611 -562 -47 -22 -152 -73 -235 -114 -82 -40 -208 -98
-279 -128 -263 -113 -407 -233 -461 -386 -9 -25 -20 -95 -25 -155 -12 -137
-40 -227 -124 -400 -224 -456 -722 -1034 -1141 -1325 -257 -177 -765 -387
-1236 -509 -331 -87 -565 -124 -789 -125 -250 -2 -339 32 -398 150 -59 117
-194 182 -536 255 -364 78 -473 129 -512 236 -47 134 29 327 292 739 174 271
247 398 334 576 120 245 190 505 190 706 1 453 139 846 421 1197 251 312 682
623 932 671 97 19 173 14 392 -25 124 -23 183 -20 241 13 41 23 58 43 167 211
130 198 196 231 492 245 304 15 365 40 730 299 350 249 555 372 773 466 136
58 494 191 552 205 61 14 154 11 232 -9z"/>
<path d="M7415 15562 c-27 -10 -110 -55 -183 -101 -152 -93 -292 -166 -467
-241 -249 -106 -364 -187 -560 -394 -112 -118 -151 -152 -200 -176 -66 -33
-159 -49 -275 -50 -41 0 -103 -7 -138 -15 -136 -32 -212 -90 -376 -282 -247
-292 -314 -326 -696 -348 -247 -15 -424 -49 -630 -120 -304 -106 -470 -265
-585 -563 -65 -170 -100 -341 -200 -992 -48 -315 -88 -509 -189 -925 -47 -193
-90 -384 -97 -425 -22 -141 9 -241 98 -320 96 -84 412 -219 623 -265 41 -9
145 -19 230 -22 307 -11 487 36 1080 282 270 111 354 152 475 232 134 88 229
169 353 298 214 222 379 469 557 830 124 252 195 424 290 705 84 248 109 297
209 395 135 134 242 179 644 269 350 79 502 134 652 236 162 111 322 346 406
596 77 231 81 450 11 654 -50 146 -113 245 -237 371 -122 124 -242 208 -431
299 -188 90 -268 106 -364 72z m209 -52 c83 -28 265 -123 366 -191 181 -121
335 -302 401 -474 45 -115 61 -205 61 -330 0 -218 -73 -439 -219 -664 -72
-110 -150 -191 -248 -256 -143 -95 -290 -146 -627 -220 -117 -26 -256 -61
-308 -77 -231 -74 -377 -185 -470 -359 -16 -31 -62 -150 -101 -264 -313 -915
-698 -1494 -1215 -1827 -74 -48 -201 -107 -442 -207 -567 -235 -782 -291
-1062 -278 -191 9 -382 60 -605 160 -166 74 -254 142 -286 222 -15 40 -15 157
0 225 8 30 51 210 96 400 101 417 139 613 205 1045 28 182 61 389 75 460 104
550 274 784 664 919 214 74 345 99 648 121 116 9 237 22 269 31 144 37 258
126 437 341 108 130 166 183 242 221 67 33 114 42 272 52 234 15 284 41 458
234 162 180 301 279 520 374 189 81 345 160 499 255 201 122 241 132 370 87z"/>
<path d="M7383 15224 c-82 -20 -213 -88 -398 -205 -82 -53 -174 -109 -203
-124 -73 -40 -155 -130 -182 -202 -31 -80 -31 -212 0 -303 80 -238 267 -413
572 -537 427 -174 777 -120 898 140 64 135 103 348 104 557 0 179 -12 240 -73
365 -68 138 -188 237 -356 292 -101 33 -267 41 -362 17z m293 -44 c235 -59
376 -196 436 -419 26 -99 28 -296 4 -431 -23 -129 -61 -271 -86 -321 -81 -158
-274 -238 -502 -209 -159 19 -341 82 -508 173 -134 73 -279 217 -337 334 -50
100 -67 174 -61 269 6 93 42 170 106 224 26 22 108 76 182 121 74 46 181 111
238 145 208 127 354 158 528 114z"/>
<path d="M7432 15026 c-138 -35 -268 -135 -366 -281 -66 -98 -96 -168 -96
-226 0 -86 58 -142 235 -229 174 -84 213 -94 380 -95 135 0 142 1 198 29 127
65 196 199 197 383 0 187 -97 346 -248 404 -71 27 -221 35 -300 15z m220 -37
c160 -34 251 -133 279 -306 24 -144 -26 -316 -112 -384 -106 -84 -300 -91
-489 -17 -212 83 -320 165 -320 243 0 74 137 282 232 353 133 99 279 139 410
111z"/>
<path d="M5100 13769 c-47 -5 -154 -20 -238 -34 -155 -25 -262 -36 -562 -55
-279 -18 -387 -52 -500 -157 -116 -107 -183 -259 -245 -554 -20 -96 -83 -376
-140 -624 -149 -646 -185 -841 -205 -1103 -15 -206 6 -368 61 -458 49 -81 162
-153 294 -190 81 -22 354 -30 482 -14 201 25 422 91 623 186 144 69 231 122
395 244 439 325 668 582 863 967 234 461 368 930 348 1213 -11 159 -46 240
-142 335 -134 132 -315 213 -547 244 -91 13 -364 12 -487 0z m455 -40 c242
-30 405 -101 546 -239 87 -86 113 -140 130 -272 47 -375 -264 -1211 -608
-1638 -84 -104 -306 -318 -441 -425 -366 -291 -651 -434 -1013 -510 -178 -38
-416 -45 -550 -17 -222 46 -329 143 -360 327 -17 102 -6 367 25 555 31 192 75
400 172 820 42 179 98 428 125 554 78 361 125 481 234 592 70 71 154 115 265
138 42 8 190 22 330 31 140 9 298 23 350 31 175 27 365 53 410 57 101 8 301 6
385 -4z"/>
<path d="M4600 13484 c-19 -2 -72 -9 -117 -14 -189 -24 -377 -95 -475 -180
-109 -95 -143 -177 -302 -736 -141 -495 -194 -763 -203 -1021 -11 -338 38
-427 277 -507 264 -87 668 -42 909 103 211 126 605 504 868 833 101 126 207
286 253 383 21 44 56 145 78 225 72 260 77 291 77 460 -1 192 -16 243 -104
331 -62 61 -126 91 -232 108 -61 10 -963 23 -1029 15z m1002 -55 c154 -21 253
-88 298 -205 21 -51 24 -77 24 -189 1 -143 -8 -196 -74 -440 -25 -92 -59 -186
-87 -243 -96 -197 -318 -477 -603 -762 -353 -355 -514 -466 -767 -531 -329
-84 -719 -12 -806 149 -73 136 -61 417 39 864 66 298 265 974 311 1060 35 65
136 159 208 196 114 57 297 101 480 116 89 7 908 -5 977 -15z"/>
<path d="M4707 13140 c-26 -5 -77 -18 -114 -30 -273 -88 -459 -293 -517 -570
-28 -132 -41 -356 -28 -467 15 -124 24 -156 64 -222 25 -40 47 -62 88 -85 51
-29 61 -31 150 -30 84 1 110 6 220 43 161 54 400 171 515 252 240 171 377 377
392 592 10 141 -36 262 -129 342 -97 82 -289 154 -453 169 -38 4 -86 9 -105
11 -19 1 -56 -1 -83 -5z m323 -73 c143 -37 224 -79 301 -156 69 -69 92 -115
105 -212 7 -54 -17 -186 -47 -256 -56 -132 -199 -287 -363 -397 -173 -115
-471 -242 -621 -264 -273 -41 -371 178 -300 668 48 329 234 545 543 631 92 26
251 20 382 -14z"/>
<path d="M24937 16839 c-95 -49 -249 -95 -457 -138 -553 -112 -890 -141 -1681
-141 -590 0 -669 -6 -1459 -111 -763 -101 -600 -91 -1590 -99 -926 -7 -931 -8
-1189 -55 -220 -40 -491 -125 -769 -241 -206 -86 -227 -98 -295 -163 -71 -67
-162 -204 -402 -601 -190 -314 -271 -437 -374 -565 -198 -246 -356 -386 -616
-545 -188 -115 -287 -192 -469 -370 -363 -354 -597 -670 -1204 -1625 -133
-209 -292 -446 -354 -526 -526 -683 -1052 -1221 -1374 -1404 -400 -228 -2176
-727 -2755 -774 -144 -12 -222 -40 -401 -145 -397 -231 -914 -661 -1463 -1217
-438 -443 -777 -851 -876 -1053 -137 -280 1 -381 800 -580 401 -101 515 -120
716 -120 261 0 352 30 671 221 256 155 435 252 570 313 370 164 847 290 1258
331 170 17 483 6 606 -20 323 -69 490 -195 543 -407 36 -142 31 -280 -24 -608
-21 -128 -32 -242 -39 -389 -18 -411 -90 -828 -216 -1257 -119 -403 -257 -697
-412 -880 -162 -190 -271 -422 -552 -1170 -264 -703 -346 -834 -643 -1033
-418 -281 -1188 -433 -1647 -326 -194 45 -408 127 -659 253 -371 186 -729 410
-1491 934 -224 155 -404 253 -495 272 -47 10 -71 10 -114 0 -89 -20 -139 -79
-239 -284 -115 -234 -169 -313 -326 -475 -73 -75 -166 -181 -205 -235 -310
-417 -556 -1050 -578 -1488 -6 -116 -6 -118 15 -118 20 0 22 5 22 54 0 97 29
283 69 439 96 374 270 755 481 1051 73 102 137 176 255 293 116 115 199 239
305 455 92 189 138 247 211 266 100 25 245 -41 549 -250 810 -556 1171 -781
1564 -974 319 -157 577 -242 811 -265 183 -19 501 8 753 62 389 84 731 251
943 459 174 171 242 310 513 1031 146 391 251 638 333 785 56 100 88 146 207
298 232 293 467 1015 557 1706 11 85 24 250 29 365 7 150 18 263 40 395 57
348 62 516 22 662 -65 233 -283 379 -645 432 -136 21 -450 21 -622 1 -281 -33
-564 -98 -870 -200 -307 -102 -485 -189 -900 -438 -310 -187 -409 -220 -650
-220 -182 0 -312 23 -720 125 -553 138 -730 209 -780 313 -53 113 9 236 295
585 707 862 1805 1817 2278 1981 32 11 107 24 172 30 577 47 2342 543 2752
772 322 180 840 706 1380 1403 70 90 219 311 371 550 608 955 809 1228 1166
1584 160 160 270 251 405 338 342 220 439 297 602 480 143 160 254 317 441
624 374 616 418 677 540 740 217 113 656 263 928 317 259 52 285 53 1225 61
994 8 820 -4 1630 104 223 30 475 62 560 70 85 9 169 19 185 22 17 3 338 9
715 13 824 11 999 24 1480 112 299 55 483 105 603 165 37 19 47 30 47 49 0 14
-1 25 -2 25 -2 -1 -29 -14 -61 -31z"/>
<path d="M0 16322 c0 -15 14 -20 92 -30 344 -43 417 -294 277 -955 -66 -314
-232 -812 -346 -1040 -18 -36 -23 -61 -21 -99 l3 -51 62 139 c251 563 413
1184 413 1578 0 271 -116 429 -340 465 -101 17 -140 15 -140 -7z"/>
<path d="M24849 16325 c-225 -35 -466 -118 -795 -274 -91 -43 -188 -81 -245
-95 -257 -65 -634 -58 -1042 20 -309 59 -417 69 -848 84 -265 9 -577 0 -690
-19 -287 -49 -327 -142 -142 -333 75 -77 398 -354 456 -391 50 -32 148 -64
282 -91 215 -45 271 -82 282 -189 15 -144 -115 -452 -234 -557 -71 -62 -139
-83 -253 -77 -116 6 -185 29 -400 135 -137 67 -163 84 -226 146 -55 55 -81 91
-112 156 -66 137 -90 235 -167 680 -46 262 -80 332 -190 385 -162 78 -287 87
-780 51 -545 -40 -682 -55 -894 -102 -312 -70 -540 -187 -745 -384 -117 -112
-205 -218 -428 -515 -286 -379 -412 -515 -618 -665 -421 -307 -524 -394 -858
-724 -336 -332 -509 -525 -624 -694 -65 -97 -88 -152 -88 -215 1 -107 47 -126
358 -147 213 -15 285 -34 420 -111 234 -135 375 -248 456 -366 133 -196 116
-384 -52 -594 -77 -95 -117 -133 -287 -268 -261 -208 -391 -355 -443 -504 -24
-71 -24 -75 -16 -242 18 -366 9 -462 -58 -655 -40 -113 -135 -306 -199 -405
-68 -103 -166 -201 -254 -253 -39 -23 -151 -72 -250 -110 -314 -119 -487 -205
-693 -344 -358 -240 -559 -460 -717 -783 -134 -274 -188 -485 -280 -1095 -59
-391 -79 -462 -240 -815 -67 -148 -213 -475 -325 -725 -390 -878 -637 -1347
-842 -1598 -158 -193 -303 -456 -431 -782 -36 -91 -126 -343 -200 -560 -158
-461 -213 -607 -268 -710 -245 -455 -781 -796 -1430 -910 -156 -28 -493 -38
-661 -21 -355 37 -673 147 -1065 367 -76 42 -262 160 -413 262 -729 492 -820
551 -954 617 -127 64 -142 69 -216 73 -114 7 -143 -13 -248 -165 -97 -140
-134 -183 -405 -474 -342 -365 -491 -554 -586 -744 -50 -102 -75 -190 -106
-390 -30 -195 -31 -205 -6 -205 16 0 20 12 30 83 41 291 74 413 148 542 106
185 230 338 571 704 259 278 306 333 392 461 64 95 92 124 133 139 46 18 92
13 179 -19 109 -40 244 -120 538 -318 135 -91 360 -243 500 -338 365 -246 617
-386 879 -489 469 -183 1030 -210 1541 -74 456 121 867 383 1107 703 118 159
170 275 327 733 230 670 281 804 391 1028 88 180 158 293 269 435 260 330 442
678 946 1810 131 294 264 589 295 655 109 233 132 324 210 830 25 165 60 361
77 435 78 347 200 623 373 845 219 280 648 584 1040 735 415 161 461 185 577
309 157 168 320 508 364 761 13 78 15 123 8 250 -5 85 -8 209 -8 275 0 106 3
127 26 182 56 133 166 254 408 448 177 142 292 255 353 348 166 251 133 486
-102 710 -137 131 -434 312 -561 341 -36 8 -154 22 -262 31 -257 20 -298 35
-298 114 0 39 57 147 127 240 185 246 690 760 1008 1026 78 65 184 146 432
327 210 154 330 284 633 689 220 292 306 394 418 499 296 278 635 390 1342
444 663 52 750 53 897 16 74 -20 145 -51 177 -79 50 -44 83 -157 131 -451 89
-542 171 -704 425 -842 339 -183 546 -226 703 -146 160 81 327 399 327 622 0
148 -64 202 -301 251 -152 33 -232 58 -284 92 -53 35 -320 259 -414 348 -84
79 -131 146 -131 186 0 86 222 129 664 129 431 0 743 -23 1004 -74 253 -50
400 -67 623 -73 345 -10 510 20 759 137 360 169 622 254 883 285 38 5 47 10
47 26 0 23 -23 24 -151 4z"/>
<path d="M0 16025 c0 -18 7 -25 29 -30 33 -7 75 -48 90 -88 6 -16 11 -65 11
-110 0 -74 -7 -150 -40 -452 -5 -49 -28 -162 -50 -250 -31 -122 -40 -175 -38
-225 l3 -65 44 153 c54 192 87 353 95 468 4 49 14 155 23 236 26 252 -6 340
-139 379 -25 7 -28 5 -28 -16z"/>
<path d="M24830 16030 c-47 -10 -202 -62 -345 -115 -257 -96 -717 -252 -826
-280 -31 -8 -135 -24 -230 -35 -202 -24 -316 -43 -399 -69 -133 -42 -203 -109
-215 -206 -18 -142 74 -470 272 -975 95 -241 108 -281 173 -540 130 -517 184
-598 403 -600 261 -1 548 236 983 811 117 154 203 332 310 639 37 105 44 137
44 200 l0 75 -64 -190 c-130 -391 -199 -532 -359 -740 -169 -220 -235 -297
-363 -427 -266 -270 -475 -371 -647 -312 -110 37 -167 155 -258 534 -56 232
-79 303 -184 575 -205 529 -293 851 -264 961 31 113 166 172 479 209 292 34
331 43 623 139 155 52 397 136 537 188 278 104 362 128 446 131 49 2 54 4 54
25 0 19 -5 22 -42 21 -24 0 -81 -9 -128 -19z"/>
<path d="M24700 15846 c-36 -13 -113 -46 -171 -74 -59 -28 -174 -73 -256 -101
-83 -27 -214 -79 -292 -116 -233 -109 -358 -143 -638 -170 -167 -16 -205 -30
-235 -89 -17 -32 -21 -58 -21 -121 1 -98 25 -203 104 -445 34 -102 98 -332
144 -512 109 -426 149 -524 242 -595 32 -25 45 -28 107 -28 84 0 140 24 251
107 91 68 322 299 408 408 247 311 417 667 491 1030 42 208 76 451 76 544 0
175 -56 218 -210 162z m123 -25 c58 -22 60 -139 7 -461 -34 -207 -73 -371
-121 -505 -133 -377 -371 -732 -680 -1012 -236 -214 -355 -257 -448 -164 -72
72 -108 172 -212 586 -39 154 -102 375 -139 490 -85 263 -103 344 -98 439 5
115 27 131 197 146 199 18 407 58 497 96 21 9 100 45 175 80 74 34 205 86 290
114 84 29 201 75 259 102 109 52 216 97 237 97 6 1 23 -3 36 -8z"/>
<path d="M24359 15470 c-59 -15 -181 -66 -298 -124 -145 -73 -210 -94 -350
-111 -183 -23 -250 -55 -290 -138 -26 -53 -28 -170 -6 -264 19 -81 130 -364
192 -489 52 -106 122 -192 177 -218 108 -51 241 8 416 183 179 180 330 450
396 709 34 133 34 307 2 372 -33 63 -66 84 -141 87 -34 1 -78 -2 -98 -7z m131
-83 c34 -17 49 -66 49 -162 2 -247 -181 -638 -399 -855 -138 -138 -245 -197
-309 -170 -74 30 -162 183 -270 470 -83 221 -99 315 -65 385 28 60 71 77 252
100 137 17 196 37 360 119 113 56 298 126 337 126 11 0 31 -6 45 -13z"/>
<path d="M19385 15503 c-231 -23 -525 -131 -730 -267 -317 -212 -792 -673
-1212 -1177 -174 -209 -228 -257 -576 -524 -274 -209 -392 -333 -433 -457 -25
-77 -16 -186 23 -263 167 -326 725 -802 1373 -1173 96 -55 288 -174 425 -264
471 -311 566 -365 731 -414 175 -52 404 -43 587 23 97 35 263 119 390 197 230
142 474 246 812 346 584 172 656 196 800 268 312 155 485 380 554 719 71 349
13 573 -203 788 -120 119 -195 171 -562 388 -562 333 -763 483 -851 638 -23
41 -87 178 -141 304 -163 379 -244 524 -354 634 -97 97 -237 179 -362 211 -75
19 -204 30 -271 23z m216 -97 c130 -28 276 -112 371 -214 96 -103 171 -239
313 -572 158 -371 191 -424 343 -546 146 -117 394 -280 716 -469 443 -261 572
-368 665 -552 65 -129 79 -301 40 -499 -64 -335 -225 -543 -531 -689 -104 -50
-342 -129 -708 -235 -134 -40 -294 -90 -355 -112 -147 -54 -405 -179 -538
-261 -372 -231 -629 -291 -901 -212 -158 46 -250 98 -722 410 -131 87 -301
194 -379 238 -286 163 -436 262 -675 443 -345 261 -612 530 -701 707 -58 114
-46 201 42 320 64 85 149 160 394 347 301 230 364 287 521 478 172 206 304
352 509 561 282 287 524 500 704 621 131 88 397 196 576 234 90 19 232 20 316
2z"/>
<path d="M18740 14519 c-113 -18 -190 -69 -370 -244 -217 -212 -300 -286 -710
-630 -464 -390 -610 -538 -696 -705 -24 -46 -28 -68 -29 -132 0 -70 2 -79 31
-115 16 -21 58 -56 92 -78 35 -22 109 -69 165 -106 56 -36 239 -166 407 -289
345 -254 643 -457 805 -547 404 -226 702 -308 939 -258 86 18 894 292 1151
390 478 182 766 335 916 484 114 115 141 218 86 327 -38 76 -165 241 -238 310
-103 98 -181 142 -617 353 -476 230 -515 251 -637 336 -137 96 -258 201 -505
440 -124 119 -261 246 -305 282 -188 152 -332 206 -485 182z m181 -55 c137
-40 241 -120 578 -442 409 -392 524 -477 881 -650 124 -61 331 -161 461 -224
333 -162 407 -217 548 -404 94 -126 121 -178 121 -234 0 -196 -347 -420 -1059
-685 -191 -71 -981 -341 -1071 -366 -62 -17 -240 -14 -328 5 -126 27 -258 76
-411 151 -258 126 -480 270 -936 606 -263 193 -450 323 -627 434 -165 105
-138 235 105 505 72 80 177 174 492 438 426 359 476 403 665 587 181 177 230
219 290 250 90 47 195 57 291 29z"/>
<path d="M18545 13095 c-253 -47 -426 -141 -493 -269 -23 -44 -27 -63 -27
-137 0 -81 2 -90 42 -170 46 -92 166 -258 258 -357 137 -149 328 -267 505
-314 113 -30 351 -32 480 -5 104 23 297 84 450 144 636 250 695 480 175 679
-284 110 -359 141 -520 216 -449 211 -470 218 -660 224 -87 2 -156 -1 -210
-11z m333 -41 c88 -18 217 -67 344 -130 167 -84 401 -186 593 -259 213 -81
293 -120 355 -172 124 -107 85 -202 -140 -333 -147 -85 -518 -226 -716 -271
-140 -31 -333 -32 -459 -1 -235 58 -433 205 -626 462 -174 231 -205 360 -118
487 110 160 503 271 767 217z"/>
<path d="M24962 14163 c-61 -124 -154 -286 -228 -398 -121 -182 -192 -256
-375 -395 -90 -68 -360 -280 -599 -470 -494 -394 -702 -553 -910 -695 -117
-80 -179 -132 -320 -270 -230 -225 -318 -282 -541 -356 -149 -49 -341 -88
-649 -134 -574 -85 -887 -201 -1480 -551 -577 -340 -723 -396 -1081 -414 -103
-5 -233 -17 -290 -25 -503 -75 -1131 -342 -1576 -670 -87 -64 -182 -152 -358
-329 -263 -266 -370 -363 -580 -531 -455 -363 -835 -579 -1215 -690 -265 -78
-408 -188 -534 -409 -122 -215 -185 -588 -158 -935 25 -311 12 -469 -59 -686
-73 -224 -195 -436 -388 -675 -172 -213 -286 -391 -415 -649 -238 -474 -420
-1063 -501 -1621 -46 -316 -47 -327 -55 -1220 -5 -476 -11 -885 -14 -910 -3
-25 -11 -101 -16 -170 -14 -159 -44 -369 -76 -527 -22 -108 -89 -363 -109
-415 -6 -14 -2 -18 17 -18 23 0 27 9 56 108 78 266 124 521 158 872 12 127 18
363 24 1030 8 929 10 969 70 1321 145 854 457 1625 862 2129 239 297 356 498
436 750 55 175 66 274 57 530 -16 416 -4 606 50 808 54 201 131 339 258 459
84 79 210 149 324 177 401 102 919 411 1443 860 58 49 222 207 365 351 186
187 293 286 375 347 445 332 1078 601 1580 672 63 9 194 20 290 25 235 13 333
34 529 118 129 54 189 87 491 263 278 163 422 241 579 314 286 132 583 219
896 261 404 54 683 119 861 200 130 59 210 120 393 298 133 130 207 193 301
257 206 140 491 358 944 719 236 189 500 396 585 460 161 122 237 195 327 317
66 90 165 249 238 386 50 93 57 113 54 154 l-3 46 -33 -69z"/>
<path d="M24880 13309 c-172 -269 -285 -416 -444 -575 -198 -198 -308 -278
-816 -589 -574 -352 -764 -497 -896 -686 -153 -218 -325 -326 -594 -373 -111
-19 -180 -24 -510 -36 -530 -20 -742 -61 -1062 -204 -198 -90 -374 -190 -775
-441 -393 -247 -527 -319 -701 -379 -172 -60 -270 -75 -536 -86 -429 -18 -624
-62 -908 -207 -349 -177 -720 -488 -1241 -1043 -358 -381 -453 -468 -653 -600
-134 -89 -271 -154 -479 -229 -365 -132 -498 -225 -593 -416 -80 -160 -112
-409 -112 -866 0 -505 -54 -781 -193 -989 -16 -25 -123 -137 -237 -250 -217
-215 -289 -301 -413 -490 -279 -427 -491 -973 -586 -1510 -102 -569 -113
-1043 -50 -2030 28 -433 23 -725 -14 -880 -23 -98 -75 -253 -125 -377 l-22
-53 24 0 c20 0 28 12 59 93 155 407 166 538 112 1347 -8 118 -20 353 -26 522
-30 748 47 1391 233 1952 140 425 356 839 584 1121 81 101 158 182 322 338
123 118 187 197 237 297 92 182 135 448 135 835 1 780 86 1059 362 1192 46 22
164 68 263 103 434 149 691 317 1010 657 254 270 724 734 860 849 383 322 673
478 1019 549 87 18 180 28 331 35 402 20 542 44 750 130 143 59 235 111 540
303 385 242 541 335 694 411 417 209 614 253 1251 276 427 16 557 36 718 111
155 72 252 156 364 316 128 182 313 321 918 693 312 192 479 301 575 378 246
196 399 373 640 741 94 145 106 167 103 201 -3 38 -5 36 -118 -141z"/>
<path d="M24850 12674 c-152 -163 -406 -404 -525 -499 -87 -70 -280 -199 -580
-388 -227 -144 -423 -282 -540 -381 -33 -28 -148 -127 -255 -221 -323 -282
-422 -357 -527 -400 -107 -43 -161 -47 -527 -40 -426 9 -538 -2 -716 -72 -164
-65 -269 -142 -500 -368 -167 -163 -228 -214 -295 -245 -20 -9 -94 -16 -220
-20 -171 -7 -198 -10 -274 -36 -102 -34 -234 -111 -441 -260 -233 -167 -333
-225 -502 -290 -190 -74 -389 -108 -688 -119 -124 -5 -196 -12 -249 -26 -263
-70 -625 -343 -932 -705 -141 -167 -256 -330 -392 -556 -130 -215 -193 -305
-304 -430 -240 -272 -580 -479 -1053 -642 -58 -20 -129 -53 -158 -73 -96 -65
-168 -192 -205 -360 -19 -88 -22 -128 -21 -378 0 -234 4 -325 28 -555 15 -151
26 -298 24 -326 -9 -111 -84 -203 -342 -422 -386 -327 -553 -493 -721 -717
-413 -550 -571 -1088 -552 -1880 8 -343 35 -575 105 -905 36 -173 36 -178 36
-405 0 -241 -15 -431 -60 -762 -13 -100 -24 -184 -24 -188 0 -3 19 -5 42 -3
l43 3 17 120 c27 191 56 492 70 722 13 238 10 282 -41 523 -114 536 -138 1067
-70 1534 65 448 220 813 504 1191 160 212 323 375 665 665 220 186 337 307
377 387 39 81 41 175 9 505 -46 469 -45 712 4 904 27 106 60 174 111 229 52
56 84 73 237 127 255 89 474 196 672 329 269 181 458 388 648 709 189 320 351
537 572 764 260 267 513 447 720 511 38 12 115 20 250 25 306 14 474 41 663
107 185 64 324 142 593 334 328 235 418 269 715 269 190 0 230 23 494 280 201
196 294 267 428 330 184 86 305 101 780 93 394 -6 419 -4 552 62 114 55 184
111 694 554 157 136 357 281 604 436 548 346 637 415 970 747 l237 237 0 65
c0 36 -1 66 -2 66 -2 0 -68 -70 -148 -156z"/>
<path d="M14935 12246 c-71 -32 -139 -114 -211 -248 -248 -469 -839 -1163
-1417 -1666 -314 -274 -502 -393 -812 -515 -322 -127 -664 -225 -1605 -458
-943 -234 -1132 -290 -1355 -401 -227 -115 -287 -174 -445 -441 -92 -154 -137
-205 -421 -470 -342 -317 -444 -441 -471 -569 -24 -115 18 -174 203 -285 204
-123 337 -164 534 -165 143 -1 221 9 399 53 280 70 502 159 1066 429 584 279
721 319 1095 320 127 0 270 20 369 50 74 23 95 33 406 192 199 102 337 156
450 178 30 6 127 15 215 19 135 7 168 12 208 31 74 35 135 97 229 232 126 181
149 198 261 198 143 0 357 41 486 93 102 41 203 105 289 181 102 91 155 120
400 213 241 91 337 141 413 214 64 61 115 153 123 223 3 23 10 140 16 261 15
337 57 574 136 780 44 113 81 180 150 272 63 82 98 112 244 211 191 129 319
266 393 420 33 68 40 93 40 145 1 78 -23 129 -76 168 -60 43 -125 59 -292 69
-221 14 -317 43 -595 179 -235 116 -325 134 -425 87z m193 -30 c23 -8 126 -55
229 -104 297 -141 352 -158 577 -172 181 -12 244 -28 299 -79 35 -33 41 -44
45 -92 9 -113 -66 -246 -225 -400 -57 -55 -142 -124 -203 -164 -365 -238 -508
-603 -538 -1376 -8 -195 -9 -198 -41 -263 -59 -119 -182 -199 -476 -306 -199
-73 -310 -129 -381 -192 -95 -85 -136 -114 -216 -158 -147 -79 -332 -126 -540
-136 -68 -4 -135 -13 -149 -20 -40 -20 -86 -71 -166 -187 -91 -131 -154 -196
-219 -227 -42 -20 -73 -24 -219 -31 -291 -14 -319 -24 -895 -320 -163 -85
-270 -107 -570 -119 -129 -5 -262 -14 -295 -20 -83 -15 -212 -55 -328 -101
-93 -37 -160 -68 -642 -296 -459 -217 -789 -333 -1066 -374 -129 -19 -316 -7
-419 26 -199 64 -423 209 -450 291 -16 47 7 122 62 205 44 68 241 268 522 534
187 177 221 218 334 409 42 71 101 156 131 188 128 139 359 251 749 363 86 25
481 126 877 225 1118 278 1512 398 1837 561 407 204 1069 817 1583 1464 194
245 316 425 425 625 34 63 76 132 92 152 73 93 178 128 276 94z"/>
<path d="M15038 11936 c-129 -35 -220 -146 -416 -503 -101 -184 -140 -244
-258 -388 -115 -142 -194 -323 -228 -525 -25 -144 -39 -461 -26 -576 28 -253
148 -397 380 -455 38 -10 115 -14 256 -13 228 1 239 4 295 81 102 143 140 416
95 688 -26 154 -19 238 33 395 25 76 57 150 82 190 29 45 147 170 384 405 189
187 353 356 364 375 26 43 27 82 4 102 -44 38 -67 42 -278 48 -237 6 -219 1
-395 105 -130 76 -207 95 -292 71z m202 -74 c36 -17 110 -57 165 -87 l100 -55
165 0 c242 0 321 -18 303 -68 -13 -37 -71 -97 -308 -322 -265 -253 -392 -387
-455 -484 -25 -38 -56 -109 -81 -186 -51 -154 -60 -257 -36 -436 24 -179 25
-191 16 -293 -16 -176 -67 -321 -131 -377 -36 -32 -37 -32 -182 -39 -353 -18
-538 73 -618 304 -22 62 -23 82 -23 311 0 190 4 269 19 355 41 246 115 407
271 590 74 87 103 131 220 346 59 106 129 225 156 265 58 83 153 178 201 199
53 24 142 15 218 -23z"/>
<path d="M14541 10264 c-31 -39 -44 -125 -38 -244 6 -122 25 -182 73 -239 78
-91 191 -69 282 56 49 69 72 122 72 172 0 39 -5 48 -48 90 -49 47 -164 142
-211 173 -15 10 -45 18 -68 18 -33 0 -46 -5 -62 -26z m130 -101 c30 -25 78
-64 107 -86 29 -22 58 -49 63 -59 24 -45 -98 -208 -155 -208 -31 0 -72 48 -88
103 -21 74 -13 297 10 297 5 0 33 -21 63 -47z"/>
<path d="M10805 8883 c-140 -22 -191 -25 -405 -24 -264 1 -417 -10 -492 -35
-84 -27 -159 -87 -418 -331 -458 -431 -653 -650 -748 -843 -19 -40 -28 -74
-30 -126 -4 -70 -3 -72 31 -106 50 -50 106 -63 262 -61 362 4 552 76 948 354
206 145 270 180 527 279 299 116 402 161 502 221 162 98 245 178 296 289 31
65 41 198 22 270 -15 56 -72 114 -125 129 -62 17 -195 11 -370 -16z m385 -39
c58 -33 75 -75 75 -179 0 -76 -5 -99 -27 -148 -50 -108 -193 -230 -373 -320
-62 -31 -308 -131 -540 -218 -104 -40 -210 -101 -365 -209 -366 -255 -500
-319 -744 -356 -144 -22 -369 -16 -413 10 -180 109 94 472 926 1230 159 145
201 156 631 161 276 3 334 7 470 29 188 30 309 30 360 0z"/>
<path d="M24894 12111 c-110 -106 -207 -175 -384 -271 -268 -145 -485 -321
-1163 -939 -500 -456 -632 -566 -779 -652 -143 -84 -276 -124 -548 -164 -538
-80 -680 -139 -935 -385 -180 -174 -244 -218 -402 -271 -115 -39 -231 -55
-493 -68 -315 -16 -331 -20 -560 -159 -287 -174 -505 -253 -1183 -431 -147
-39 -300 -84 -340 -101 -167 -69 -322 -176 -467 -320 -114 -114 -204 -228
-410 -515 -247 -345 -318 -433 -470 -586 -211 -212 -335 -293 -615 -399 -305
-116 -494 -219 -594 -324 -115 -123 -134 -238 -82 -506 46 -239 54 -320 48
-465 -26 -550 -351 -1039 -1120 -1686 -262 -220 -372 -344 -465 -526 -115
-224 -151 -387 -159 -713 -6 -283 8 -429 91 -935 116 -704 118 -729 110 -1262
-7 -430 -7 -433 13 -433 20 0 21 7 28 443 8 540 6 563 -95 1177 -91 551 -110
715 -110 951 0 441 109 758 351 1023 30 33 146 138 259 235 687 587 1007 1014
1112 1482 20 91 23 129 22 309 0 195 -2 214 -37 388 -41 201 -45 263 -22 339
52 176 225 292 720 483 262 100 455 239 663 474 102 116 220 271 444 582 162
225 230 307 367 445 161 161 280 242 451 306 36 14 200 60 365 103 645 169
887 260 1175 440 186 117 218 125 534 140 236 11 327 22 436 51 160 43 352
164 457 287 23 27 76 77 117 110 187 151 346 205 786 272 304 45 411 76 569
164 151 84 275 187 801 666 705 642 898 797 1200 960 139 75 239 145 343 242
71 65 79 76 75 105 l-3 31 -101 -97z"/>
<path d="M24850 11418 c-74 -44 -232 -138 -350 -208 -501 -299 -807 -527
-1111 -831 -340 -339 -557 -466 -1244 -729 -546 -210 -710 -294 -912 -468
-261 -225 -495 -324 -1163 -492 -292 -74 -371 -102 -510 -179 -168 -93 -293
-138 -677 -247 -355 -100 -636 -197 -768 -267 -122 -65 -293 -265 -497 -583
-373 -579 -424 -650 -572 -791 -100 -96 -180 -159 -456 -358 -198 -143 -273
-215 -322 -310 -50 -97 -70 -162 -123 -412 -99 -461 -165 -619 -406 -978 -159
-237 -256 -352 -480 -566 -325 -313 -444 -456 -557 -669 -94 -178 -160 -377
-198 -600 -25 -146 -29 -530 -9 -770 9 -113 20 -399 25 -680 8 -475 11 -539
31 -865 10 -171 27 -356 35 -392 2 -13 12 -23 21 -23 14 0 15 10 10 72 -4 40
-11 127 -17 193 -17 211 -29 528 -36 965 -3 234 -12 508 -20 610 -22 279 -29
586 -15 725 26 266 90 498 196 710 105 211 166 287 464 585 146 146 290 292
320 325 80 89 190 237 295 397 225 343 285 492 381 941 72 337 103 416 202
519 38 38 131 115 208 171 358 259 470 351 588 485 63 70 255 352 465 681 182
285 354 493 467 566 96 62 415 174 820 289 329 93 450 137 620 226 184 96 228
111 614 210 370 94 544 151 717 234 153 74 270 149 374 242 162 144 356 250
715 389 671 261 815 327 1055 482 130 85 208 151 415 353 342 334 609 527
1253 905 260 153 302 181 302 202 0 12 -3 23 -7 22 -5 0 -69 -37 -143 -81z"/>
<path d="M24885 10652 c-223 -119 -376 -223 -692 -475 -403 -321 -668 -493
-1648 -1067 -639 -374 -782 -459 -990 -590 -460 -290 -682 -370 -1800 -651
-352 -88 -700 -180 -773 -205 -300 -98 -475 -211 -589 -379 -60 -89 -93 -160
-168 -360 -37 -99 -89 -223 -115 -275 -117 -233 -259 -381 -840 -880 -118
-101 -285 -254 -370 -340 -223 -223 -283 -312 -541 -806 -320 -611 -437 -787
-790 -1189 -221 -252 -316 -382 -379 -519 -63 -137 -64 -141 -65 -576 0 -332
-4 -418 -20 -535 -26 -190 -27 -622 -2 -840 29 -242 147 -948 162 -963 2 -2
12 -2 22 0 19 3 17 15 -28 258 -104 557 -132 802 -132 1130 0 174 6 287 22
435 19 171 22 250 20 545 -1 392 0 403 76 555 48 97 154 244 285 395 454 523
529 635 869 1284 330 631 353 659 1051 1262 299 259 487 442 576 560 81 108
157 261 239 479 87 232 141 336 217 420 79 86 160 143 299 209 172 82 307 122
978 290 802 201 1046 274 1349 402 149 63 264 127 507 279 116 72 359 218 540
324 1470 862 1619 957 2102 1342 281 224 425 322 637 435 90 47 106 59 106 80
0 13 -1 24 -2 24 -2 0 -52 -26 -113 -58z"/>
<path d="M18 9983 c-11 -3 -18 -14 -18 -27 0 -22 2 -23 57 -14 108 17 240 -19
357 -97 203 -134 195 -302 -49 -1055 -142 -437 -235 -665 -320 -787 -35 -50
-45 -73 -43 -97 3 -31 3 -30 56 39 99 130 186 335 331 779 151 462 200 653
208 816 8 152 -9 204 -90 284 -104 102 -264 167 -407 165 -36 -1 -73 -3 -82
-6z"/>
<path d="M24890 9954 c-118 -34 -359 -155 -520 -261 -160 -106 -246 -168 -440
-321 -177 -140 -266 -200 -770 -519 -514 -325 -548 -348 -720 -467 -402 -279
-600 -486 -600 -626 0 -74 27 -104 175 -193 71 -43 185 -114 255 -159 69 -45
179 -110 245 -143 199 -101 315 -129 530 -129 263 0 461 53 885 239 135 59
373 159 529 222 322 129 390 162 479 227 56 42 62 49 62 82 l0 37 -52 -49
c-83 -79 -156 -116 -463 -239 -264 -106 -378 -155 -705 -297 -321 -140 -616
-203 -840 -178 -201 22 -375 91 -608 242 -70 45 -193 121 -273 170 -120 72
-150 95 -164 124 -63 134 164 364 731 742 98 65 352 228 564 362 495 312 564
359 745 500 288 224 443 333 630 441 125 72 292 143 378 161 49 10 57 15 57
35 0 28 -4 28 -110 -3z"/>
<path d="M0 9583 c0 -21 5 -23 50 -23 130 0 199 -75 200 -215 0 -145 -82 -387
-206 -607 -33 -59 -44 -88 -44 -120 l1 -43 25 40 c56 90 182 357 217 461 75
227 65 410 -27 478 -43 32 -61 38 -143 45 -71 6 -73 6 -73 -16z"/>
<path d="M24820 9580 c-208 -44 -415 -162 -740 -419 -221 -175 -246 -193 -475
-331 -282 -169 -651 -415 -785 -523 -149 -120 -290 -270 -330 -351 -29 -58
-32 -73 -28 -131 3 -58 8 -69 38 -101 99 -103 330 -150 687 -141 348 8 584 68
918 232 358 175 675 432 849 688 37 55 46 77 46 110 l0 42 -41 -65 c-180 -284
-492 -547 -869 -734 -325 -161 -632 -236 -963 -236 -289 1 -520 52 -596 133
-119 128 109 397 629 744 148 99 313 203 490 308 163 97 290 186 480 336 347
274 547 379 782 411 73 10 88 15 88 30 0 24 -64 23 -180 -2z"/>
<path d="M3307 7469 c-37 -10 -127 -46 -200 -78 -338 -152 -651 -247 -1000
-306 -297 -50 -403 -57 -962 -65 -400 -6 -548 -12 -605 -23 -190 -37 -359 -96
-472 -164 -49 -30 -64 -44 -66 -66 -2 -15 -1 -27 1 -27 2 0 35 20 73 45 106
70 293 136 487 171 77 15 166 18 537 19 245 1 506 7 580 14 551 47 993 156
1420 351 283 129 413 142 471 46 76 -126 42 -319 -176 -976 -74 -223 -153
-474 -175 -559 -82 -309 -131 -384 -350 -540 -208 -149 -361 -329 -571 -672
-310 -505 -466 -998 -485 -1532 -6 -186 -23 -296 -64 -419 -157 -469 -643
-950 -1274 -1259 -121 -60 -153 -67 -211 -45 -98 38 -169 165 -236 421 l-28
110 -1 -92 c0 -77 5 -105 31 -180 77 -219 174 -320 299 -311 118 8 480 213
760 429 115 88 319 286 403 389 191 237 320 507 347 730 5 41 14 161 20 265 5
105 19 246 30 315 81 493 310 1005 663 1475 93 125 241 268 373 362 199 141
257 237 344 563 22 85 99 331 170 545 177 536 220 714 206 872 -9 106 -50 176
-119 202 -43 16 -144 12 -220 -10z"/>
<path d="M20965 7323 c-11 -3 -99 -33 -195 -68 -210 -75 -284 -92 -455 -104
-240 -17 -313 -64 -546 -352 -147 -181 -282 -312 -424 -409 -124 -85 -282
-235 -340 -324 -68 -104 -131 -236 -210 -436 -96 -242 -200 -462 -259 -544
-122 -171 -289 -273 -766 -466 -365 -148 -603 -270 -784 -404 -127 -94 -374
-304 -493 -420 -225 -217 -321 -384 -352 -611 -17 -117 -15 -370 3 -428 36
-120 117 -178 256 -185 166 -8 276 23 744 208 332 131 382 144 415 111 27 -27
27 -77 0 -258 -43 -285 -9 -412 126 -463 52 -20 164 -29 228 -19 98 16 159 58
264 182 17 20 38 37 46 37 18 0 96 -79 143 -145 45 -63 74 -159 74 -244 0 -36
-10 -145 -22 -241 -18 -150 -20 -185 -10 -253 16 -107 60 -194 139 -273 85
-85 151 -116 246 -116 127 0 244 46 427 168 138 92 225 162 624 508 136 117
261 212 333 252 51 29 81 38 146 45 155 18 243 74 520 332 104 96 203 183 222
191 42 20 96 20 182 0 147 -35 261 1 415 128 181 150 275 260 493 578 235 341
325 451 469 566 95 76 207 133 331 169 74 22 122 28 275 35 263 12 377 33 485
87 79 40 122 79 151 139 23 48 26 63 22 127 -8 129 -89 263 -251 416 -284 269
-332 326 -358 421 -23 86 9 154 95 205 62 37 147 55 302 65 109 7 160 15 220
35 212 71 372 213 475 420 73 149 84 200 84 395 0 143 -3 175 -22 236 -41 129
-103 188 -198 188 -68 0 -130 -25 -221 -90 -161 -115 -201 -125 -539 -131
-144 -3 -347 0 -455 7 -107 6 -328 15 -490 20 -536 17 -596 42 -970 420 -198
200 -233 231 -295 261 -64 32 -77 34 -175 36 -58 1 -114 -1 -125 -4z m261
-108 c46 -22 103 -74 283 -255 244 -246 321 -305 461 -359 132 -51 204 -61
505 -71 154 -6 354 -14 445 -20 319 -18 592 -23 724 -11 204 18 289 46 410
138 123 93 196 107 251 49 50 -53 69 -134 69 -301 1 -118 -3 -153 -22 -219
-76 -264 -276 -468 -521 -531 -35 -9 -125 -20 -200 -25 -188 -12 -279 -42
-362 -117 -65 -59 -82 -102 -77 -197 4 -62 11 -93 31 -132 40 -79 137 -194
231 -273 150 -127 270 -261 313 -347 66 -135 50 -221 -56 -292 -91 -61 -220
-86 -516 -101 -211 -11 -296 -30 -432 -96 -115 -56 -225 -139 -328 -246 -99
-104 -161 -185 -350 -459 -179 -262 -232 -328 -355 -448 -166 -164 -276 -233
-368 -235 -26 0 -87 7 -136 16 -165 31 -206 10 -468 -240 -227 -217 -304 -266
-460 -289 -150 -22 -246 -86 -614 -405 -379 -328 -571 -469 -728 -531 -98 -39
-198 -44 -257 -15 -57 28 -149 125 -178 187 -30 66 -40 197 -22 317 46 319 29
447 -78 588 -87 113 -143 155 -209 155 -40 0 -48 -4 -95 -57 -134 -147 -177
-170 -304 -160 -84 6 -127 27 -160 76 -36 53 -38 117 -8 325 16 114 24 203 20
224 -22 117 -102 155 -247 117 -31 -8 -170 -60 -309 -116 -557 -223 -724 -254
-834 -158 -48 43 -65 106 -65 244 0 428 103 603 602 1021 82 68 182 149 223
179 180 134 415 255 765 395 242 97 461 200 557 262 89 58 193 156 248 233 64
90 156 281 265 551 113 277 123 299 197 414 70 107 189 224 323 317 174 120
289 231 467 453 199 248 260 285 495 301 153 9 242 29 410 90 212 78 257 89
335 86 53 -3 86 -11 129 -32z"/>
<path d="M20727 6831 c-147 -41 -295 -126 -606 -350 -113 -82 -242 -170 -286
-197 -44 -26 -113 -68 -154 -93 -129 -78 -268 -225 -383 -406 -24 -38 -118
-198 -208 -355 -327 -570 -377 -649 -475 -738 -106 -97 -180 -128 -505 -212
-299 -77 -421 -132 -632 -280 -163 -115 -438 -398 -577 -593 -183 -259 -139
-391 124 -374 50 4 209 26 355 51 146 25 301 48 345 52 97 8 185 -8 223 -41
l27 -23 1 -163 c1 -198 15 -252 78 -315 69 -69 156 -80 371 -44 161 26 187 26
224 -5 60 -52 99 -168 146 -445 39 -231 71 -357 108 -424 86 -154 193 -165
393 -39 49 30 215 130 369 220 154 91 316 191 360 222 107 76 295 263 389 388
188 251 290 303 636 324 203 11 282 22 357 49 161 56 237 133 508 510 320 444
503 623 712 695 64 21 107 28 235 35 248 14 356 41 430 108 53 48 68 80 68
150 0 48 -7 73 -37 133 -32 65 -59 97 -223 259 -158 156 -192 195 -218 250
-46 95 -64 179 -66 305 -1 90 2 116 18 145 33 63 86 119 204 219 191 160 229
215 203 294 -16 48 -89 111 -148 128 -76 22 -212 14 -380 -21 -339 -71 -383
-79 -488 -90 -359 -37 -620 93 -884 439 -104 137 -153 184 -230 220 -50 23
-70 26 -186 28 -102 2 -145 -1 -198 -16z m320 -36 c79 -24 141 -73 221 -176
191 -246 277 -326 441 -412 226 -120 430 -125 909 -22 260 55 365 69 427 55
125 -28 183 -107 140 -190 -9 -16 -75 -81 -148 -143 -152 -131 -206 -187 -239
-249 -21 -39 -23 -56 -22 -168 0 -148 14 -220 59 -315 44 -91 119 -180 248
-293 279 -244 313 -428 94 -511 -78 -28 -151 -40 -332 -50 -186 -10 -259 -30
-378 -104 -192 -121 -308 -251 -672 -756 -241 -336 -342 -400 -665 -421 -310
-21 -384 -34 -488 -90 -87 -46 -144 -100 -254 -244 -117 -150 -248 -285 -362
-370 -44 -33 -217 -141 -385 -241 -168 -100 -340 -202 -381 -228 -169 -106
-249 -98 -318 30 -38 73 -62 165 -107 423 -51 292 -74 366 -140 439 -54 60
-90 66 -228 42 -177 -32 -245 -36 -309 -17 -111 32 -142 108 -140 340 2 173
-5 193 -78 229 -70 34 -259 30 -495 -12 -328 -59 -359 -63 -450 -64 -147 -2
-187 35 -150 138 50 142 326 475 550 663 233 196 402 279 739 363 274 68 384
112 481 192 112 93 155 155 410 597 349 604 386 661 515 791 83 84 119 110
265 194 55 31 200 129 322 216 337 242 471 319 623 358 92 24 227 27 297 6z"/>
<path d="M20775 6423 c-122 -17 -462 -194 -666 -344 -259 -192 -390 -374 -682
-954 -131 -258 -219 -387 -354 -515 -93 -90 -170 -137 -483 -297 -346 -178
-438 -238 -498 -328 -36 -55 -43 -124 -18 -173 18 -34 91 -101 179 -165 117
-84 167 -165 210 -338 35 -139 62 -181 139 -213 42 -18 182 -36 279 -36 201 0
274 -87 299 -353 5 -60 14 -126 20 -146 38 -144 173 -141 441 8 232 129 354
220 712 534 132 116 270 233 305 259 130 99 289 158 423 158 296 0 513 146
896 605 83 99 176 204 206 233 67 62 151 105 256 128 180 39 237 55 260 72 65
48 87 116 71 220 -13 83 -27 126 -101 319 -32 84 -86 244 -119 355 -33 112
-74 231 -91 266 -78 160 -194 208 -527 218 -211 6 -303 18 -395 51 -120 43
-196 94 -337 228 -118 112 -168 151 -231 179 -55 25 -139 38 -194 29z m180
-71 c41 -20 101 -67 190 -148 148 -136 205 -179 290 -222 123 -61 181 -73 415
-83 324 -14 417 -32 493 -100 63 -55 89 -111 161 -350 36 -119 92 -285 124
-370 93 -240 97 -255 97 -351 0 -77 -2 -89 -24 -112 -29 -30 -82 -49 -216 -75
-239 -46 -282 -77 -558 -404 -246 -293 -392 -427 -542 -501 -95 -47 -169 -64
-321 -75 -134 -10 -195 -26 -294 -76 -96 -49 -159 -98 -415 -321 -328 -287
-383 -331 -545 -439 -291 -195 -479 -265 -538 -202 -30 32 -39 66 -52 204 -16
162 -40 232 -98 293 -61 62 -110 76 -309 88 -128 8 -160 14 -200 33 -59 30
-75 57 -108 184 -49 192 -104 272 -261 386 -165 119 -182 179 -82 285 70 74
167 134 476 293 321 165 392 209 488 307 146 149 210 248 382 589 289 572 444
759 809 979 111 67 317 171 386 196 83 29 179 26 252 -8z"/>
<path d="M21279 5589 c-185 -43 -332 -166 -493 -408 -152 -230 -214 -384 -223
-552 -7 -119 11 -183 67 -239 52 -52 112 -70 232 -70 225 0 485 93 748 267
145 96 300 248 350 343 31 59 34 73 35 150 0 101 -18 161 -76 251 -79 121
-201 213 -338 253 -59 17 -238 21 -302 5z m308 -54 c94 -32 166 -79 237 -155
91 -99 146 -239 130 -335 -32 -200 -420 -510 -787 -629 -380 -123 -584 -46
-564 214 11 142 68 290 182 468 172 271 296 386 474 439 109 32 228 31 328 -2z"/>
<path d="M18930 4101 c-123 -25 -199 -121 -200 -254 0 -88 32 -152 92 -183
119 -62 302 -18 428 101 90 87 112 154 71 222 -26 42 -127 90 -227 108 -86 16
-111 16 -164 6z m195 -56 c120 -32 183 -86 170 -146 -11 -47 -114 -148 -190
-184 -52 -26 -72 -30 -147 -30 -72 0 -91 3 -114 21 -69 51 -87 114 -60 208 18
63 63 112 118 132 47 18 154 17 223 -1z"/>
<path d="M2805 6905 c-140 -26 -287 -68 -620 -180 -345 -115 -490 -154 -679
-180 -135 -19 -415 -35 -624 -35 -201 0 -337 -14 -423 -44 -215 -75 -339 -256
-430 -633 -21 -89 -29 -145 -28 -205 l1 -83 48 192 c59 236 81 305 133 412 67
139 172 236 302 279 78 26 248 42 455 42 509 0 761 43 1248 210 589 202 840
244 912 153 42 -53 25 -163 -76 -481 -85 -267 -117 -321 -271 -450 -180 -150
-276 -256 -513 -572 -360 -480 -452 -624 -536 -842 -70 -180 -90 -308 -104
-663 -13 -340 -44 -489 -146 -700 -111 -232 -330 -489 -658 -770 -157 -135
-234 -189 -297 -210 -72 -24 -113 -6 -150 67 -43 85 -56 207 -69 678 -11 409
-21 563 -50 772 -36 259 -88 452 -177 660 l-48 110 -3 -48 c-2 -38 6 -70 37
-145 118 -288 173 -616 191 -1144 26 -734 33 -812 85 -914 56 -111 154 -120
298 -28 75 48 269 212 411 348 344 328 521 616 585 953 25 131 30 184 41 466
14 332 40 447 155 685 74 153 135 245 379 575 299 405 383 502 579 672 144
123 174 160 224 268 45 98 158 465 172 561 20 127 -14 206 -98 229 -48 13
-171 11 -256 -5z"/>
<path d="M24920 6720 c-121 -122 -190 -282 -190 -444 -1 -155 -61 -315 -180
-476 -72 -97 -83 -110 -274 -318 -185 -202 -232 -263 -273 -347 -38 -80 -42
-138 -14 -200 27 -61 80 -100 236 -176 111 -53 157 -81 206 -126 113 -105 130
-185 88 -413 -39 -211 -18 -325 80 -433 48 -55 63 -80 90 -152 53 -141 87
-342 161 -959 58 -475 91 -692 124 -826 l24 -95 1 86 c1 48 -4 111 -9 140 -26
134 -55 344 -100 729 -96 799 -135 962 -269 1123 -84 100 -96 174 -60 368 29
154 30 269 1 332 -49 110 -135 182 -325 271 -141 66 -180 94 -208 152 -49 101
5 196 277 491 146 158 264 298 321 383 89 132 143 288 143 414 1 165 57 310
165 424 54 58 66 76 63 99 -3 27 -5 26 -78 -47z"/>
<path d="M4345 6351 c-60 -27 -122 -102 -170 -204 -65 -136 -105 -292 -169
-657 -116 -653 -137 -697 -519 -1088 -286 -293 -380 -417 -465 -617 -42 -99
-67 -195 -131 -495 -67 -313 -111 -480 -181 -690 -151 -454 -364 -856 -778
-1474 -394 -587 -505 -810 -536 -1079 -5 -44 -4 -47 18 -47 21 0 24 5 29 69
11 137 111 376 260 623 42 69 159 249 260 400 361 538 562 899 710 1273 110
279 174 507 277 987 71 333 113 450 215 610 76 118 147 200 375 433 365 374
385 417 500 1045 81 445 137 643 214 764 113 177 253 164 467 -44 157 -154
215 -273 213 -445 -1 -166 -52 -285 -292 -682 -161 -266 -247 -435 -296 -584
-58 -174 -66 -231 -76 -524 -12 -380 -32 -521 -97 -710 -48 -139 -86 -204
-333 -575 -244 -366 -579 -899 -635 -1011 -69 -136 -86 -199 -95 -359 -5 -80
-9 -287 -9 -461 -1 -347 -9 -417 -60 -558 -30 -82 -63 -141 -118 -208 l-34
-43 30 0 c25 0 37 9 62 42 68 94 125 235 150 371 6 35 14 258 18 517 8 511 7
504 92 673 57 113 387 639 639 1017 245 368 265 402 313 522 77 190 105 367
117 748 7 213 14 297 30 372 46 217 128 397 346 758 247 410 301 545 292 730
-9 158 -63 273 -198 414 -169 177 -317 241 -435 187z"/>
<path d="M1990 6265 c-52 -7 -188 -32 -303 -54 l-207 -41 -263 0 c-387 0 -507
-19 -619 -100 -90 -64 -151 -177 -202 -373 -45 -171 -60 -305 -60 -522 0 -287
33 -464 120 -637 26 -51 91 -193 145 -315 136 -312 191 -405 271 -463 33 -24
51 -30 93 -30 48 0 57 4 103 45 98 88 164 255 378 953 58 191 122 380 142 421
42 87 107 160 205 234 40 29 142 106 227 169 261 195 381 312 430 419 37 82
20 179 -42 236 -13 12 -46 32 -73 44 -63 28 -209 34 -345 14z m324 -99 c21
-11 47 -33 58 -50 40 -65 -2 -146 -146 -283 -93 -89 -119 -110 -396 -315 -192
-143 -236 -185 -293 -282 -55 -93 -64 -120 -166 -456 -200 -657 -282 -873
-356 -939 -42 -36 -49 -37 -93 -11 -59 36 -125 154 -257 460 -37 85 -89 198
-116 251 -26 53 -57 123 -68 155 -93 280 -83 747 25 1069 64 191 117 251 259
291 48 13 128 18 405 24 l345 7 230 46 c292 58 269 55 410 53 96 -1 128 -5
159 -20z"/>
<path d="M24981 5635 c-24 -110 -108 -349 -170 -486 -89 -199 -91 -187 75
-563 108 -244 109 -246 112 -198 3 43 -8 72 -82 240 -95 214 -131 319 -123
361 3 15 31 82 61 148 31 67 76 181 101 254 42 124 45 140 43 219 l-3 85 -14
-60z"/>
<path d="M7345 4700 c-296 -54 -403 -281 -265 -565 73 -151 187 -261 345 -336
135 -63 199 -72 473 -67 266 5 331 18 414 81 96 73 144 249 121 437 -19 145
-59 195 -183 225 -36 8 -112 26 -169 40 -71 17 -148 45 -240 89 -75 35 -165
71 -202 80 -81 20 -228 28 -294 16z m185 -40 c100 -13 150 -30 310 -105 107
-50 161 -69 260 -90 224 -48 256 -66 281 -158 19 -67 15 -241 -6 -317 -27 -93
-93 -160 -190 -190 -99 -32 -449 -41 -576 -16 -233 47 -437 217 -514 429 -55
150 -40 253 48 342 69 69 149 99 302 113 6 1 44 -3 85 -8z"/>
<path d="M23165 3614 c-11 -2 -40 -10 -65 -16 -78 -19 -211 -94 -283 -159 -86
-77 -136 -141 -321 -404 -308 -437 -453 -586 -632 -652 -63 -23 -89 -26 -299
-33 -262 -9 -311 -19 -425 -83 -59 -33 -109 -76 -235 -203 -88 -88 -189 -180
-224 -204 -35 -23 -134 -76 -220 -117 -86 -41 -215 -104 -288 -138 -240 -115
-361 -207 -560 -428 -344 -383 -449 -469 -642 -527 -134 -41 -308 -18 -467 63
-98 50 -238 152 -319 231 -131 130 -177 249 -156 402 18 124 15 177 -11 201
-43 38 -71 45 -221 54 -178 11 -251 29 -306 75 -59 51 -87 121 -116 290 -14
82 -34 166 -44 188 -25 57 -80 103 -133 111 -24 3 -324 5 -668 3 l-625 -3 -66
-31 c-208 -99 -251 -279 -215 -909 8 -154 18 -372 21 -485 7 -250 14 -294 75
-536 76 -299 78 -304 104 -304 23 0 23 0 -26 177 -94 345 -98 372 -108 648 -5
138 -15 340 -22 450 -7 110 -12 290 -12 400 0 173 3 211 22 279 38 138 100
214 205 252 49 18 93 19 670 22 593 3 619 2 661 -17 25 -10 52 -30 60 -44 18
-26 44 -132 71 -281 44 -243 156 -325 446 -326 90 0 178 -20 199 -45 10 -12
10 -40 0 -138 -20 -198 14 -307 137 -438 172 -182 424 -323 620 -348 257 -32
470 80 754 397 184 206 328 349 419 418 82 63 198 124 572 302 216 103 291
157 431 312 134 147 254 233 372 265 42 12 130 19 290 24 197 7 239 11 289 29
101 37 167 83 281 197 120 119 195 214 385 485 217 310 275 375 410 464 134
89 341 117 500 67 209 -65 454 -244 577 -423 168 -244 321 -704 447 -1343 97
-498 185 -1193 202 -1598 7 -175 9 -187 35 -187 19 0 19 4 14 108 -70 1248
-330 2494 -622 2986 -89 150 -292 336 -463 425 -130 68 -220 93 -345 97 -60 2
-119 1 -130 -2z"/>
<path d="M12055 2791 c-143 -82 -276 -313 -439 -762 -101 -278 -162 -425 -256
-611 -258 -515 -580 -836 -965 -966 -178 -60 -212 -64 -565 -69 -606 -9 -923
32 -1315 167 -275 96 -681 277 -880 395 -54 32 -227 143 -384 248 -325 216
-448 281 -561 298 -139 21 -227 -16 -391 -168 -47 -44 -155 -135 -240 -203
-279 -224 -422 -387 -488 -560 -46 -118 -62 -210 -68 -392 l-6 -168 42 0 41 0
0 79 c0 117 18 276 41 361 28 103 70 186 140 279 72 97 154 173 369 346 91 73
205 170 254 215 105 97 167 130 247 130 116 0 199 -42 571 -288 402 -267 516
-331 837 -474 644 -286 954 -350 1716 -352 299 -1 364 2 450 17 377 69 703
278 953 612 210 281 361 584 542 1085 232 643 451 881 575 626 47 -97 55 -172
55 -495 0 -825 -80 -1446 -259 -2002 -23 -70 -41 -129 -41 -133 0 -3 19 -6 43
-6 l44 0 46 147 c176 562 246 1115 250 1973 1 347 0 369 -20 442 -36 128 -88
208 -155 244 -46 24 -126 18 -183 -15z"/>
<path d="M23065 2412 c-118 -44 -192 -99 -389 -291 -269 -260 -428 -376 -620
-456 -119 -49 -222 -70 -466 -95 -252 -25 -383 -55 -515 -119 -218 -104 -364
-228 -946 -797 -319 -313 -414 -391 -574 -470 -195 -96 -400 -132 -690 -120
-585 25 -900 137 -1112 396 -33 40 -84 126 -133 226 -44 88 -107 201 -140 250
-178 268 -465 540 -685 650 -184 91 -309 83 -381 -26 -46 -69 -55 -126 -64
-405 -5 -143 -14 -307 -21 -365 -7 -58 -12 -184 -12 -280 0 -171 6 -243 39
-423 15 -79 18 -87 39 -87 22 0 22 0 9 63 -45 216 -58 468 -34 697 6 63 17
244 24 402 12 278 13 288 40 342 44 90 112 118 217 92 140 -36 318 -157 503
-340 193 -192 317 -361 415 -570 72 -151 116 -219 201 -309 157 -167 365 -265
671 -316 231 -38 558 -52 744 -31 203 23 396 98 569 222 58 40 218 187 445
407 544 527 678 642 856 732 161 83 267 109 560 139 303 31 387 53 576 152
144 75 289 189 496 390 203 197 296 266 406 299 116 36 190 17 280 -70 179
-172 286 -594 342 -1343 23 -310 17 -576 -21 -906 -5 -48 -4 -52 15 -52 25 0
27 7 41 185 33 429 31 567 -16 1045 -64 663 -205 1063 -414 1170 -62 32 -185
38 -255 12z"/>
<path d="M11781 1252 c-26 -27 -89 -115 -141 -196 -371 -573 -432 -658 -553
-773 -118 -112 -273 -207 -432 -264 l-50 -18 63 0 c70 -1 151 32 272 109 212
138 322 271 654 795 135 212 220 331 244 340 12 4 14 -41 9 -332 -6 -423 -28
-608 -101 -837 l-24 -76 24 0 c21 0 26 10 49 84 67 221 96 480 98 887 2 315 0
329 -46 329 -12 0 -40 -21 -66 -48z"/>
<path d="M22435 1189 c-240 -36 -571 -245 -792 -501 -40 -46 -176 -219 -302
-386 -216 -284 -228 -302 -202 -302 25 0 47 25 197 223 251 332 309 404 393
490 258 266 565 437 783 437 101 0 145 -16 204 -75 72 -71 86 -116 92 -295 4
-134 -11 -571 -24 -717 -6 -59 -5 -63 14 -63 16 0 22 8 26 33 10 62 26 494 26
677 0 216 -11 277 -68 360 -66 98 -195 142 -347 119z"/>
<path d="M6551 1024 c-63 -23 -108 -54 -168 -115 -68 -72 -117 -151 -183 -295
-30 -65 -109 -227 -175 -359 -66 -131 -121 -243 -123 -247 -2 -4 8 -8 22 -8
26 0 67 77 339 640 98 201 196 311 309 345 68 20 103 19 177 -4 88 -27 174
-82 356 -227 191 -152 220 -171 282 -185 115 -27 286 -89 683 -247 234 -93
515 -202 625 -242 181 -66 209 -73 290 -77 l90 -4 -220 74 c-249 84 -401 141
-800 303 -373 150 -512 201 -612 224 -98 23 -115 34 -298 180 -254 202 -343
251 -475 257 -52 2 -89 -2 -119 -13z"/>
</g>
</svg>
